<svg xmlns="http://www.w3.org/2000/svg" xmlns:xlink="http://www.w3.org/1999/xlink" width="1600" height="1600"><g><svg xmlns="http://www.w3.org/2000/svg" xmlns:xlink="http://www.w3.org/1999/xlink" width="1600" height="1600"/><svg xmlns="http://www.w3.org/2000/svg" width="1600" height="1600" version="1.0" viewBox="0 0 1600 1600"><g fill="#f7e997" transform="matrix(.1 0 0 -.1 0 1600)"><path d="M0 8000V0h16000v16000H0V8000z"/></g></svg><svg xmlns="http://www.w3.org/2000/svg" width="1600" height="1600" version="1.0" viewBox="0 0 1600 1600"><g fill="#f6db76" transform="matrix(.1 0 0 -.1 0 1600)"><path d="M0 8000V0h16000v16000H0V8000zm8582 2643c-50-3-61-7-53-17 7-9 7-23 1-47-15-50-15-228-1-272 7-21 11-47 8-58-3-12 0-19 9-19 8 0 14-5 14-11 0-5 6-7 13-3 6 4 4-2-6-12-16-18-38-19-284-22-181-1-270 1-279 9-7 6-17 8-23 5-5-3-11 1-15 9-4 12 3 15 32 17l37 1-38 4-37 4 4 160c3 95 0 172-6 189-8 23-7 33 5 44 19 20 70 22 402 22 154 0 252-1 217-3zm-57-583c-45-6-47-7-15-10 27-2 29-4 12-7-16-3-22-10-18-19 5-12-2-14-32-9-30 4-33 3-14-4 20-9 22-18 24-93 2-46 2-105 2-133 0-31 4-53 13-58 7-4 13-13 13-19s8-17 18-25c9-8 11-12 5-8-7 3-13 1-13-5 0-7 9-14 20-17s20-11 20-19 16-14 43-17c23-2-43-5-148-7-159-3-265-3-512 0-23 0-23 0-2 21 17 17 19 23 8 30-12 8-12 11 1 19 12 7 15 39 15 172 0 162 0 162-25 169-23 6-22 7 13 14 47 9 49 26 2 18-23-4-35-2-35 6s90 11 328 9c180 0 305-4 277-8zm432-446c-3-3-12-4-19-1-8 3-5 6 6 6 11 1 17-2 13-5zm0-120c-3-3-12-4-19-1-8 3-5 6 6 6 11 1 17-2 13-5zm203-7c0-6 3-7 7-4 3 4 12 2 19-3 9-8 9-18 1-40s-8-38 1-62c6-18 13-86 14-150 1-65 6-118 10-118s5-6 2-14 2-16 13-19c10-3-2-5-27-6s-86-4-137-7c-56-3-99-1-110 5-16 9-15 11 7 12l25 1-25 8c-24 8-24 8-2 9 12 1 22 6 22 12 0 5-4 8-9 5-11-7-2 34 10 50 11 14 14 258 3 275-4 8-3 10 4 5 7-4 12-3 12 2 0 6-8 13-17 16-15 6-14 9 7 21 29 16 170 18 170 2zm-2166-20c9-9 12-59 10-193l-2-181 32-16c17-9 40-18 51-20 11-3-49-5-132-6-96-1-153 3-153 9s-8 10-17 11c-15 0-15 2 2 9 13 6 15 9 5 9-11 1-12 3-3 9 15 9 17 336 2 364-9 17-4 18 91 18 68 0 106-4 114-13zm36-357c0-5-5-10-11-10-5 0-7 5-4 10 3 6 8 10 11 10 2 0 4-4 4-10zm2165-1342c23-10 26-17 23-52-2-23-7-44-12-48-6-4-5-12 2-20 11-14 11-35 0-53-9-15-8-168 2-180 4-5 10-26 13-47 6-47 1-48-173-47-74 1-125 4-114 6 15 3 22 12 22 29 0 14 7 33 15 42 12 13 15 28 10 55-3 20-10 37-14 37-5 0-9 9-9 20s5 20 11 20c8 0 8 4 1 13-6 7-9 30-6 50 3 24 0 37-7 37-16 0-4 54 18 81 25 30 111 69 155 69 20 0 49-5 63-12zm-1368-620c-2-13-4-5-4 17-1 22 1 32 4 23 2-10 2-28 0-40zm0-200c-3-8-6-5-6 6-1 11 2 17 5 13 3-3 4-12 1-19zm1473-408c0-5-5-10-11-10-5 0-7 5-4 10 3 6 8 10 11 10 2 0 4-4 4-10zm-32-34c-30-22-41-83-28-147 9-42 11-97 6-182-9-160-9-170 10-184 13-10 11-14-18-36-78-59-271-178-248-153 16 17 19 25 8 21-15-6-15-1 0 62 17 74 17 154 1 246-6 32-10 81-11 108 0 27-4 52-9 55-28 17-3 45 99 113 59 39 113 71 118 71 6 0 19 9 28 19 10 11 25 17 34 14 11-5 13-3 7 7-6 9-4 11 5 5 10-6 10-10-2-19zm-2317-278c82-51 148-95 149-98 0-3-12-6-26-5-26 0-43-28-24-40 4-3 4-24-2-47-5-24-7-69-4-100 3-32 9-84 12-117 4-38 2-61-5-65-14-9-14-93 0-102 7-4 7-10 1-16s-48 14-118 58c-113 70-144 92-110 80 16-5 17-4 7 8-7 8-10 20-6 26 3 5-1 10-10 10-15 0-15 1 0 16 10 11 13 23 8 38-4 11-7 103-5 204 1 139-1 182-11 182-8 0-7 4 3 10 12 8 12 10 1 10-8 0-11 3-8 7 4 3 2 12-4 20-23 26 6 11 152-79zm2013 26c3-8 2-12-4-9s-10 10-10 16c0 14 7 11 14-7zm456-179c0-2-10-9-22-15-22-11-22-10-4 4 21 17 26 19 26 11zm-80-51c-8-8-23-20-34-25-13-6-10 0 9 15 34 29 43 33 25 10zm-381-247c-2-1-13-9-24-17-19-14-19-14-6 3 7 9 18 17 24 17s8-1 6-3zm-89-62c0-2-10-10-22-16-21-11-22-11-9 4 13 16 31 23 31 12zm339 248c-13-15-12-15 9-4 23 12 28 21 13 21-5 0-15-7-22-17z"/></g></svg><svg xmlns="http://www.w3.org/2000/svg" width="1600" height="1600" version="1.0" viewBox="0 0 1600 1600"><g fill="#f5d162" transform="matrix(.1 0 0 -.1 0 1600)"><path d="M0 8000V0h16000v16000H0V8000zm8819 2643c-81-4-87-5-82-23 3-11 1-20-4-20s-9-18-10-40c-2-30 2-40 13-40 12 0 14-9 10-42-3-24-7-68-8-98-2-30-7-58-13-62-5-4 0-8 13-8s21-4 17-10c-3-5-12-7-20-3-15 5-21-17-8-31 4-3 8-15 10-25 2-14-3-17-25-14-26 3-26 3-4-7 13-5 35-8 48-6 13 3 22 1 19-4s9-11 27-13c28-4 27-5-7-4-22 1-45-1-50-4-6-3-186-7-402-8-400-3-655 5-618 20 11 4 16 8 10 8-5 1-3 6 5 11 13 8 12 11-4 23-20 15-14 37 10 37 11 0 14 18 14 88 0 48 4 94 10 102 5 9 5 17-1 20-5 4-10 25-11 48-1 24-7 43-15 46-20 8-15 31 10 44 27 15 149 18 712 18 242 0 401-2 354-3zm-3387-51c-6-2-8-11-5-20 4-15 3-15-6-2-6 8-11 23-11 34 0 16 2 17 16 5 9-8 12-15 6-17zm3333-32c-3-5-13-10-21-10s-12 5-9 10c3 6 13 10 21 10s12-4 9-10zm55-334c0-2-7-7-16-10-8-3-12-2-9 4 6 10 25 14 25 6zm167-12c-3-3-12-4-19-1-8 3-5 6 6 6 11 1 17-2 13-5zm171-21c-21-2-55-2-75 0-21 2-4 4 37 4s58-2 38-4zm-1795-20c-7-2-19-2-25 0-7 3-2 5 12 5s19-2 13-5zm1343-110c-28-5-28-5-6-28 21-23 21-23-4-29s-25-6-22-129c2-67 7-148 11-179 8-58 8-58 59-59 48-2 49-2 16-9-20-4 50-8 164-9 110 0 197-3 195-5s-318-6-702-10c-698-7-698-7-687 14 6 12 17 19 24 17 9-4 12 3 9 21s-2 23 5 14c13-18 33 7 30 39-1 13 2 35 6 49 5 18 5 21-3 10-5-8-13-11-17-7s-2 13 4 19c13 13 17 205 4 224-4 6-14 14-22 17s-1 6 17 6c17 1 35 6 39 12 5 8-4 10-29 7-24-2-38 1-41 9-4 11 87 13 487 12 271-1 479-4 463-6zm1544-205c-12-39-24-68-27-65s0 21 6 39c5 18 12 58 15 89 3 30 8 69 13 85 7 26 8 23 11-25 2-34-5-79-18-123zm-4633 65c-2-16-4-3-4 27s2 43 4 28c2-16 2-40 0-55zm24 44c-8-8-11-7-11 4 0 9 3 19 7 23s9 2 11-4c3-7-1-17-7-23zm3642-484c-2-7 4-13 12-13s15-4 15-9-8-8-17-7c-16 1-18-8-14-84 1-47 7-89 11-95 9-11 7-59-4-93-5-15-3-24 7-28 8-3 17-18 21-35 5-25 10-29 38-29 18 0 39-4 46-9 17-10-209-20-458-19-136 0-176 3-132 8 58 6 97 20 58 20-9 0-14 5-11 10 4 6 10 8 15 5 4-3 8 5 8 18-1 12 0 36 0 52 1 17 2 57 2 90 1 33 2 69 2 80 4 63-3 95-19 96-15 0-15 2 2 9 20 9 20 9 0 10-12 1-4 7 20 14 27 8 35 14 25 18-8 4 73 6 180 5 150-2 194-5 193-14zm-2158-3c6 0 3-5-5-10-12-8-11-10 8-10 12 0 22-4 22-10 0-5-7-7-15-4-12 5-15-3-16-37-3-223-2-249 11-264 12-14 11-18-1-26-10-6-6-9 16-10l30-1-30-8-30-7 35-10c19-6 28-12 20-13-11-1-9-4 5-10 21-9-95-12-351-11-109 1-137 4-172 21-23 11-42 25-42 31s7 3 16-5c8-9 30-16 47-16 23 0 28 3 18 9-8 5-20 7-27 4-6-2-15 0-19 6-5 10 20 15 43 9 12-3 19 54 10 92-4 19-8 84-8 143 0 60-3 106-7 104-5-2-16 4-25 15-17 17-17 18 22 18 25 0 40-5 40-12 0-10 2-10 8-1 10 15 248 23 397 13zm123 3c-10-2-28-2-40 0-13 2-5 4 17 4 22 1 32-1 23-4zm-588-27c0-2-7-7-16-10-8-3-12-2-9 4 6 10 25 14 25 6zm1147-149c-2-23-3-1-3 48 0 50 1 68 3 42s2-67 0-90zm1583-203c0-2-11-3-24-2-14 1-23 5-20 9 4 7 44 0 44-7zm-2750-43c0-5-13-11-30-13-37-6-64 8-29 15 42 8 59 7 59-2zm590-7c0-2-7-4-15-4s-15 4-15 10c0 5 7 7 15 4 8-4 15-8 15-10zm37 0c-3-3-12-4-19-1-8 3-5 6 6 6 11 1 17-2 13-5zm2730-126c-2-24-4-7-4 37s2 63 4 43c2-21 2-57 0-80zm0-100c-2-13-4-5-4 17-1 22 1 32 4 23 2-10 2-28 0-40zm-702-1048c21-5 24-8 10-10-12-1-15-4-7-7 10-4 9-10-4-25-15-16-16-23-6-39 10-15 10-19 0-19-8 0-6-5 4-11 10-5 15-16 12-24-4-8-1-15 5-15s11-4 11-10c0-5-6-10-12-10-9 0-13-16-13-48 1-26-3-53-8-59-6-8-5-18 3-28 6-8 9-19 6-24-10-16 5-61 20-61 8 0 14 5 14 10 0 6 6 5 14-2 10-9 11-17 4-25-8-10-4-13 16-13 14 0 26-4 26-10 0-5 8-11 18-11 65-6-141-17-324-18-195-1-223 1-228 15-5 12-2 15 9 10 9-3 13-2 10 4s-3 10 2 10c12 0 14 212 2 227-8 9-4 19 14 37 14 14 23 27 20 29-7 7 79 77 122 99 59 31 193 45 260 28zm-434-386c-9-39-9-39-8 8 1 26 5 43 10 39 4-4 3-25-2-47zm1146-156c-2-35-3-9-3 57s1 94 3 63c2-32 2-86 0-120zm-2180-90c-1-40-3-8-3 72s2 112 3 73c2-40 2-106 0-145zm0-120c-3-7-5-2-5 12s2 19 5 13c2-7 2-19 0-25zm2-113c-1-30-5-52-8-51-7 5-1 106 5 106 3 0 4-25 3-55zm-2-112c-3-10-5-4-5 12 0 17 2 24 5 18 2-7 2-21 0-30zm0-65c-3-7-5-2-5 12s2 19 5 13c2-7 2-19 0-25zm3-143c0-14-4-25-9-25-4 0-6 11-3 25 2 14 6 25 8 25s4-11 4-25zm1600 19c0-8-19-13-24-6-3 5 1 9 9 9s15-2 15-3zm-39-31c-11-5-11-7 0-15 10-6 7-7-9-3-21 6-23 4-17-15 4-12 3-25-2-29-5-3-19-24-32-46-22-37-24-54-27-200-2-119 0-167 10-187 12-24 12-26-3-21-11 4-10 1 4-10 24-20 39-22 29-4-5 9-4 9 6 0 8-7 12-15 9-17-23-22-434-285-457-292-11-4-13-3-5 3 6 4 14 26 18 47 6 32 5 37-6 31-12-8-12-6 0 8 17 21 13 389-5 407-13 13-7 53 6 45 4-3 11 2 14 10 7 20 386 270 431 285 22 7 33 16 29 23s-1 6 7-2c12-11 12-14 0-18zm606 5c-3-8-6-5-6 6-1 11 2 17 5 13 3-3 4-12 1-19zm-3049-359c133-85 244-159 246-166 3-7-1-10-9-7-7 3-16 12-19 20s-10 14-16 14-8-5-4-12c5-7 2-9-8-5-12 4-14 1-11-14 3-10 10-19 15-19 6 0 8-7 4-15-3-8-1-15 5-15s3-7-5-16c-9-8-14-20-10-25 3-6 0-17-7-25-10-13-10-17 1-24 15-9 15-17 11-198-3-108-2-114 21-134s23-20-1-13c-18 5-22 4-16-6 4-8-2-4-14 9-12 12-29 22-37 22-9 0-12 5-8 12s3 8-4 4c-6-4-73 32-149 80s-171 107-210 132c-65 40-83 62-50 62 8 0 8-3-1-9-11-7-10-10 3-15 21-8 37 2 28 17-5 9-3 9 8 0 8-7 20-8 28-4 9 6 6 10-11 15-21 6-22 7-6 20 15 11 16 17 5 45-9 25-9 34 1 40 14 8 11 210-3 245-5 11-3 21 5 26 9 5 9 13 2 27-7 13-8 23-1 30 13 13-29 56-48 49-8-4-11-1-8 5 4 6 13 8 19 6 7-3 121-74 254-158zm1940-5c-3-18-48-34-48-17s18 35 29 29c7-5 9-1 4 11-5 14-3 15 6 7 7-7 11-20 9-30zm-931-6c-3-7-5-2-5 12s2 19 5 13c2-7 2-19 0-25zm913-47c0-12-2-13-9-3-13 21-56 11-56-12 0-11-7-21-15-23-12-4-12-3-2 5 11 7 9 11-9 15-19 5-20 8-10 21 8 9 17 13 22 10s9-1 9 3c0 5 16 7 35 5 24-3 35-9 35-21zm-913-33c-3-8-6-5-6 6-1 11 2 17 5 13 3-3 4-12 1-19zm1553-2c0-8-131-88-136-83-9 8 29 47 46 47 8 0 31 9 50 19 39 22 40 23 40 17zm-1553-198c-2-13-4-3-4 22s2 35 4 23c2-13 2-33 0-45zm-1317-48c0-5-2-10-4-10-3 0-8 5-11 10-3 6-1 10 4 10 6 0 11-4 11-10zm2227-176c-25-23-112-68-98-51 7 9 20 17 28 17 10 0 13 6 9 16-3 8-2 13 3 9 12-7 41 5 41 17 0 6-9 8-21 5-16-4-18-3-9 8 8 10 16 10 35 1 19-8 21-14 12-22zm-131-83c-6-9-46-22-46-15 0 3 10 9 23 14 29 11 29 11 23 1zm-1526-85c0-3-4-8-10-11-5-3-10-1-10 4 0 6 5 11 10 11 6 0 10-2 10-4zm627-213c-3-10-5-2-5 17s2 27 5 18c2-10 2-26 0-35zm-69 4890c7-3 16-2 19 1 4 3-2 6-13 5-11 0-14-3-6-6z"/></g></svg><svg xmlns="http://www.w3.org/2000/svg" width="1600" height="1600" version="1.0" viewBox="0 0 1600 1600"><g fill="#dfbc5f" transform="matrix(.1 0 0 -.1 0 1600)"><path d="M0 8000V0h16000v16000H0V8000zm10457 2558c-5-99-26-178-47-178-5 0-7-6-4-14s1-16-4-20c-5-3-8 4-7 15s7 24 14 29c9 5 10 10 2 14-17 11-14 57 3 50 7-3 16 2 19 10 4 10 1 13-7 10-9-3-11 3-8 24 2 17-1 40-8 52-8 15-8 20-1 16 7-5 11 8 11 39 0 39 3 46 16 41 8-3 12-2 9 4s-1 10 6 10c9 0 10-26 6-102zm-1224 70c4-12 1-28-5-36-8-10-9-26-1-60 12-51 12-197 0-208-9-9-9-56 1-70 4-6 14-14 22-18 8-3 3-4-13-1-34 7-33-15 3-32 24-11 23-12-15-12-90 1-1352-11-1629-16-182-3-303-2-310 4-10 8-40 16-81 20-5 1-1 8 9 16 17 13 18 15 3 15-19 0-21 18-16 160 1 47 3 105 3 130 1 42 3 45 26 43 14-1 19 1 13 3-7 3-13 14-13 25 0 17-5 19-37 15-36-6-36-5-8 4 59 19 114 22 450 26 187 3 351 6 365 8s296 4 626 5c602 1 602 1 607-21zm-3783-18c21-13 20-174-2-213-16-28-16-28-22-2-4 14-4 30-1 35 4 6 1 10-4 10-7 0-11 33-11 90 0 92 5 102 40 80zm15-230c3-5 1-10-4-10-6 0-11 5-11 10 0 6 2 10 4 10 3 0 8-4 11-10zm3697-319c11-2 2-35-10-39-16-5-16-194 0-210 8-8 8-15-1-26-16-19-43-118-30-110 5 3 9 0 9-5 0-6-6-11-14-11-21 0-27-28-9-39 19-10-736-20-1382-17-303 1-415 4-430 13-16 10-17 12-3 13 11 0 15 6 11 20-3 11-9 20-13 20-11 0-19 113-9 126 15 19 22 124 8 124-8 0-10 16-7 50 5 47 4 49-25 60-17 5-28 13-24 16 3 3 14 1 24-4 11-6 25-7 32-2 11 6 10 9-5 13-26 6 36 7 921 15 643 6 872 4 957-7zm1106-59c2-57-2-95-18-144-11-38-22-68-24-68s-4 52-5 115c-2 95 1 121 16 145 9 17 20 30 23 30s6-35 8-78zm-4602 27c3-6 1-16-5-22-14-14-14-64 0-73 8-5 7-9-1-14-7-5-13-22-12-38 0-18-6-36-16-43-14-11-15-11-4 1 6 8 12 21 12 30 0 13-2 13-11 0s-10-12-5 3c19 54 18 53 2 33-15-19-16-15-16 47 0 41 4 67 11 67 5 0 7 5 4 10-3 6 3 10 14 10s23-5 27-11zm1558 3c2-4-4-8-14-8s-16 4-14 8c3 4 9 8 14 8s11-4 14-8zm46-44c0-5-4-8-10-8-5 0-10 10-10 23 0 18 2 19 10 7 5-8 10-18 10-22zm-1603-100c-3-8-6-5-6 6-1 11 2 17 5 13 3-3 4-12 1-19zm3820-498c2-58 4-149 5-203 3-80 0-97-12-98-8-1-1-4 15-8 17-4-60-10-170-13-246-8-695-9-675-2 43 15 44 17 15 24-28 7-28 8-5 9 16 1 20 4 13 9-8 5-12 59-14 180-1 168-2 172-23 173-20 0-21 1-1 9 11 5 16 10 10 11-40 9 147 15 465 14h375l2-105zm-2182 77c9-9 14-21 11-25s-1-78 3-163c4-84 4-162-1-171-5-10-3-18 5-21 7-3 4-6-6-6-10-1-25-8-33-16-16-16-3-15-529-16-283 0-267-1-258 14 13 21 12 35-4 41-11 5-13 14-8 34 16 62 23 282 9 303-4 7-3 9 3 6 6-4 13 1 15 11 4 15 24 17 184 20 98 2 180 4 181 6 1 1 94 1 207 1 175-2 207-4 221-18zm502-160c-2-23-3-1-3 48 0 50 1 68 3 42s2-67 0-90zm2190-379c-2-24-4-7-4 37s2 63 4 43c2-21 2-57 0-80zm0-100c-2-13-4-5-4 17-1 22 1 32 4 23 2-10 2-28 0-40zm-517-1055c0-7 3-13 8-13 8 0 9-32 12-235 2-184 3-175-19-175-11 0-21-5-23-11-4-13-546-27-591-15-25 6-25 6-21 113 3 60 9 109 14 111s7 9 4 15c-5 15 32 77 46 77 6 0 9 4 6 9-8 12 67 77 119 103 50 26 111 33 298 34 116 1 147-2 147-13zm527-633c-1-149 1-270 5-270 12 0 1-174-11-178-13-4-14 8-13 401 1 267 3 317 17 317 3 0 3-122 2-270zm-2180 8c-1-40-3-8-3 72s2 112 3 73c2-40 2-106 0-145zm1701 185c-10-2-26-2-35 0-10 3-2 5 17 5s27-2 18-5zm-1701-305c-3-7-5-2-5 12s2 19 5 13c2-7 2-19 0-25zm2-113c-1-30-5-52-8-51-7 5-1 106 5 106 3 0 4-25 3-55zm-2-112c-3-10-5-4-5 12 0 17 2 24 5 18 2-7 2-21 0-30zm0-65c-3-7-5-2-5 12s2 19 5 13c2-7 2-19 0-25zm1687-134c-1-27-3-144-4-261l-2-212-62-41c-34-22-65-40-69-40s-17-9-29-19c-19-17-257-173-434-286-214-137-244-154-224-130 7 8 19 15 27 15 18 0 12 22-8 28-11 3-11 2 1-7 8-6 10-11 4-11s-17 7-24 15c-10 12-9 15 6 15 12 0 15 3 8 8-15 10-18 48-19 245 0 144-2 166-15 162-12-5-12-4-3 6 9 9 10 16 1 26-9 11-7 12 7 7 13-5 16-4 11 4s1 12 15 12c12 0 19 3 16 6-4 4 11 16 33 26 22 11 37 24 34 29s1 9 9 9c7 0 22 8 33 18 52 47 257 186 614 417 53 34 75 21 74-41zm487 0c-5-16-10-21-10-12-1 18 10 51 15 45 2-1-1-16-5-33zm-2171-9c0-14-4-25-9-25-4 0-6 11-3 25 2 14 6 25 8 25s4-11 4-25zm-1329-123c-7-2-18 1-23 6-8 8-4 9 13 5 13-4 18-8 10-11zm143-53c134-80 534-336 557-358 13-11 28-21 35-21s16-4 19-10-1-7-12-4c-17 5-17 5 0-6 9-6 23-8 30-4 6 4 9 4 5-1-4-4 8-22 26-39l32-32-2-230c-2-229-2-229-29-232-17-2-38 6-60 22-18 14-36 26-39 26-6 0-282 170-471 290-144 91-187 124-177 134 3 4-1 4-10 1-11-4-18 0-23 14-3 12-11 21-16 21-6 0-7 5-4 10 4 6 1 18-6 26-6 8-9 17-6 20s2 18-3 33c-4 15-4 59-1 99 4 46 3 73-4 76-6 3-4 9 5 15 13 10 13 12 0 21-12 8-13 12-2 19 9 5 13 27 12 67-3 82-4 80 36 82 28 2 54-7 108-39zm1313-201c-3-7-5-2-5 12s2 19 5 13c2-7 2-19 0-25zm0-80c-3-8-6-5-6 6-1 11 2 17 5 13 3-3 4-12 1-19zm0-200c-2-13-4-3-4 22s2 35 4 23c2-13 2-33 0-45zm-617 32c0-5-2-10-4-10-3 0-8 5-11 10-3 6-1 10 4 10 6 0 11-4 11-10zm497-637c-3-10-5-2-5 17s2 27 5 18c2-10 2-26 0-35zm-2192 4687c-3-5-1-10 4-10 6 0 11 5 11 10 0 6-2 10-4 10-3 0-8-4-11-10z"/></g></svg><svg xmlns="http://www.w3.org/2000/svg" width="1600" height="1600" version="1.0" viewBox="0 0 1600 1600"><g fill="#cca954" transform="matrix(.1 0 0 -.1 0 1600)"><path d="M0 8000V0h16000v16000H0V8000zm10458 2553c-3-89-8-117-28-157-26-55-99-136-120-136-9 0-8 4 5 13 12 10 14 16 7 21-7 4-12 12-12 17 0 6 4 8 9 5 5-4 7 29 3 77-15 231-3 267 89 267h51l-4-107zm-1063 81c8-9 22-13 31-10 12 5 14-1 11-32-2-20-8-45-12-55-4-9-5-26-2-37s1-20-4-20-9-9-9-21c0-11 4-18 9-15 12 8 19-49 9-68-10-17-13-79-8-138 2-24 9-39 19-41 9-3-90-6-219-7s-287-3-350-5c-298-8-1992-13-1970-5 21 7 19 8-20 10l-45 2 38 10c20 6 37 14 37 20 0 5-8 7-19 3-13-4-20 0-24 17-4 12-3 25 1 28s8 71 10 153l3 147-33 1c-30 2-31 2-5 6 28 5 36 18 15 26-7 3 5 6 27 6 30 1 36 4 25 11-10 7 18 10 90 11 58 1 294 5 525 8 231 4 743 8 1137 9 645 2 718 0 733-14zm-3857-35c5-12 3-66-4-121-7-64-8-113-3-139 5-22 7-45 3-50-3-5-2-15 4-22 5-7 12-21 16-32s-19 7-51 40c-74 78-93 128-93 253v92h60c53 0 62-3 68-21zm1329-425c-3-3-12-4-19-1-8 3-5 6 6 6 11 1 17-2 13-5zm3401-193c-3-90-7-114-30-161-33-66-77-113-97-101-9 6-10 11-2 15 6 4 11 2 11-4s5-8 10-5c8 5 8 11 1 19-6 7-11 39-11 72-1 32-2 81-4 107-1 27 2 51 7 54s3 9-4 14c-11 7-11 9 1 9 10 0 11 3 4 8-12 7-17 31-15 65 1 16 10 18 67 16l66-2-4-106zm-966 87c47-12 54-20 42-52-5-12-10-14-19-6-10 8-14-9-19-77-7-99-11-131-22-187-5-29-4-37 4-32s12-2 12-18c0-18-6-26-17-27-17-1-17-2 0-6 9-2 17-9 17-15 0-5-8-7-17-4-15 5-14 3 2-10s16-15 3-11c-10 3-20 2-23-3s-184-9-427-10c-231 0-424-3-428-5-9-6-1329-7-1370-1-47 6-72 17-66 32 3 7 1 16-5 19-5 4-7 10-4 15 3 4-5 10-16 13-33 9-20 43 15 39 17-2 25 1 21 7-3 6-15 11-26 11-21 0-25 25-9 50 8 12 10 11 10-7 0-13 5-23 10-23 6 0 10 10 11 23 6 152 4 177-8 177-7 0-13 7-13 16 0 8-8 23-17 32-16 16-15 17 0 20 10 2 15 7 12 11-2 5 12 11 33 15 21 3 38 1 40-4 2-6 9-7 15-3 19 12 27 12 892 18 457 3 839 7 850 8 80 10 476 6 517-5zm-3566-33c9-8 13-19 10-24-4-5-1-11 6-13 7-3 8-9 3-18-5-8-10-58-11-112-2-54-6-104-10-110-4-7-3-8 4-4 15 9 15-3-1-29-7-12-18-20-24-19-7 1-17 2-22 3-4 0-23 29-42 64-31 57-34 70-37 170l-4 107h57c37 0 62-5 71-15zm1171-1c-3-3-12-4-19-1-8 3-5 6 6 6 11 1 17-2 13-5zm2420-106c-3-8-6-5-6 6-1 11 2 17 5 13 3-3 4-12 1-19zm244-435c11-11 10-13 0-13-7 0-10-4-6-9 3-6 7-91 8-191 3-139 0-183-10-191-7-6-11-14-9-18 2-3-233-7-522-8-290-1-516 1-502 6 22 7 23 9 7 16-15 6-16 10-5 16 10 7 10 9-2 9-11 0-12 2-3 8 10 6 9 20-5 62-13 41-14 54-4 58 15 5 16 44 1 59-7 7-8 17-1 29 8 15 8 62 0 123-3 24 5 40 20 41 79 5 566 15 769 15 188 0 255-3 264-12zm-2176-22c-2-11 0-21 4-21s4-24 0-54-8-123-10-208c-1-84-4-156-6-161-3-4-11 0-20 9-14 13-65 14-461 9-246-4-472-4-503 0l-56 7 5 96c2 53 5 142 6 198 1 75 5 104 16 115 11 10 48 15 135 17 66 2 121 4 122 5s175 4 387 6c385 4 385 4 381-18zm416-393c0-227 2-459 3-515 2-69-1-103-8-103s-7-3 1-8c11-7 15-287 28-2152 2-344 8-748 11-897 4-160 3-273-2-273s-20 9-34 20c-25 19-25 19-25 619 0 394 3 601 10 601 6 0 6 3 0 8-11 7-12 91-16 1020-1 261-5 432-11 432-5 0-6 5-2 11 7 11 6 439-1 599-2 47 1 90 6 96 6 7 6 21 1 35-5 13-10 225-11 472-2 447-2 447 24 447 25 0 25 0 26-412zm164 402c-3-5-5-214-4-462 1-249 3-582 3-740 1-159 3-288 6-288 5 0 6-198 1-215-2-5-2-14-1-20 7-32 17-1329 10-1360-1-5-1-14 0-20 1-5 4-167 6-360 2-192 5-456 8-585 3-155 0-242-7-255-10-19-9-19 9-5s18 14 5-3c-8-10-20-16-27-13-8 3-13 0-11-6 1-6-3-12-8-14-7-3-12 377-14 1158-2 640-5 1251-5 1359-1 109-4 195-7 194-3-2-5 27-5 65 1 39 4 70 9 70 4 0 7 5 7 11 0 5-4 8-8 5-4-2-9 333-11 745l-3 749h27c15 0 24-4 20-10zm2015-243c6-27 10-182 10-360 0-334-5-374-54-430-12-12-18-18-15-12 3 5 8 28 9 50 6 72 3 738-3 810l-6 70 24-40c13-21 29-61 35-88zm-4194 43c0-11-4-20-9-20-4 0-5-5-2-11 4-6 7-121 7-257-1-136 2-313 6-394 4-80 4-144 0-142-3 2-8-1-10-8-3-7-12 7-21 32-13 36-17 105-21 360-4 320 0 390 30 435 20 30 20 30 20 5zm1562-265c-3-3-9 2-12 12-6 14-5 15 5 6 7-7 10-15 7-18zm-1-492c-3-10-5-4-5 12 0 17 2 24 5 18 2-7 2-21 0-30zm0-135c-3-8-6-5-6 6-1 11 2 17 5 13 3-3 4-12 1-19zm14-395c-9-16-10-15-11 8 0 14 3 29 8 33 12 12 14-22 3-41zm-4-125c-3-7-5-2-5 12s2 19 5 13c2-7 2-19 0-25zm20-131c-3-7-6-5-6 6-1 9-5 17-11 17-5 0-10 8-10 17 0 14 3 13 16-5 8-12 13-28 11-35zm2206 45c-9-6-13-62-14-210-1-111 1-205 4-209 4-3 1-13-6-21-9-12-9-16 1-19 6-3 12-11 12-19s-6-11-17-7-14 3-9-5c4-7 2-12-4-12s-10 10-8 22c3 21 3 21-358 19l-361-2 1 93c3 123 25 185 94 259 58 63 116 96 189 109 62 10 492 12 476 2zm423-684c7-457 5-493-42-575-13-23-30-45-37-49-8-6-8-3 1 8 24 30 24 33 22 608 0 234-4 441-9 460-4 21-3 42 3 53 10 16 14 11 33-31 20-47 22-68 29-474zm-4206 300c-7-186-4-741 4-810 4-32 4-68 0-80-6-20-8-19-28 18-20 38-21 55-26 464-5 421-1 519 23 545 26 28 32-4 27-137zm1577 50c-3-8-6-5-6 6-1 11 2 17 5 13 3-3 4-12 1-19zm2-135c-1-38-1-38-9-9-8 27-6 46 6 46 2 0 4-17 3-37zm-2-90c-3-10-5-2-5 17s2 27 5 18c2-10 2-26 0-35zm2190-15c-3-7-5-2-5 12s2 19 5 13c2-7 2-19 0-25zm-20-25c-3-10-5-4-5 12 0 17 2 24 5 18 2-7 2-21 0-30zm-2167 2c0-8-2-15-4-15s-6 7-10 15c-3 8-1 15 4 15 6 0 10-7 10-15zm-13-462c-3-10-5-4-5 12 0 17 2 24 5 18 2-7 2-21 0-30zm2196-15c-2-5 1-8 7-8s8-4 5-10c-3-5-1-10 5-10 8 0 8-6 0-20-6-11-7-20-3-20s8-64 8-142c1-170 5-227 19-251 8-12 8-22 0-35-12-19-221-160-586-396-49-31-125-80-170-109-182-118-244-154-257-149-8 2-11 0-8-5s-3-14-13-21c-15-9-23-8-39 6-20 16-20 21-10 152 11 126 13 238 7 285-2 12 2 19 10 17 9-1 11 5 6 23-4 16-2 25 6 25 6 0 9 4 5 10-3 5 72 61 167 125s211 143 258 175c47 33 194 130 328 217 139 90 242 164 243 172 0 11 3 10 8-4 5-11 7-23 4-27zm-2173-23c0-8-2-15-4-15s-6 7-10 15c-3 8-1 15 4 15 6 0 10-7 10-15zm-11-112c1-7-3-13-9-13-5 0-10 15-9 33 0 27 2 29 9 12 5-11 9-26 9-32zm-984-12c-5-9 32-27 48-23 4 1 7-2 7-8 0-5 4-9 8-7 16 4 823-502 870-546l32-31 1 30c2 28 2 28 9-6 4-19 8-26 9-16 0 11 4 16 8 13 12-13 19-529 7-548-7-13-55 15-464 271-478 299-559 353-560 370 0 11-2 12-8 3s-16-4-35 17c-24 25-25 29-10 34 20 6 20 4 27 241 2 93 0 162-5 166-17 10 2 38 29 42 15 2 28 5 30 6 2 0 1-3-3-8zm1004-66c0-14-2-16-6-5-3 8-10 18-16 21-5 4-6 12-2 19 10 16 25-6 24-35zm-26-99c2-31 0-50-5-43-8 13-11 114-3 105 3-3 7-31 8-62zm18-103c-4-28-6-32-9-15-3 22 3 52 11 52 1 0 1-17-2-37zm-24-15c-3-7-5-2-5 12s2 19 5 13c2-7 2-19 0-25zm1173-762c0-3-4-8-10-11-5-3-10-1-10 4 0 6 5 11 10 11 6 0 10-2 10-4zm-1670 4814c0-5 5-10 11-10 5 0 7 5 4 10-3 6-8 10-11 10-2 0-4-4-4-10z"/></g></svg><svg xmlns="http://www.w3.org/2000/svg" width="1600" height="1600" version="1.0" viewBox="0 0 1600 1600"><g fill="#b7954c" transform="matrix(.1 0 0 -.1 0 1600)"><path d="M0 8000V0h16000v16000H0V8000zm10458 2548c-4-126-18-165-85-239-38-42-120-96-130-85-4 3-1 6 5 6 7 0 12 4 12 9s-9 7-21 4c-21-6-21-5-16 168 3 96 7 190 8 210l2 37 115 1 114 2-4-113zm-828 83c5-8 5-22 0-31-5-8-4-38 1-65 6-28 8-69 5-92-3-24-1-43 5-45s6-14-1-35c-8-23-8-37-1-52 16-29 13-51-5-51-10 0-14-6-10-15 3-8 1-15-3-15-5 0-7-9-4-20 5-20 0-20-233-21-132-1-255-2-274-3-132-8-2630-14-2610-7 24 9 24 9 3 10-25 1-31 16-10 24 9 4 8 8-3 16-12 8-12 12 3 29 16 17 16 20 2 25-18 7-21 68-5 98 7 13 7 19 0 19-16 0-12 76 5 90 19 16 19 30 0 30-22 0 0 40 23 41 9 1 4 5-13 9s-22 8-12 9c10 0 17 7 14 14-2 6-15 11-28 9-20-2-21-1-8 8 9 5 75 12 146 16 236 11 1268 21 2141 20 741-1 864-3 872-15zm-4024-23c4-6 7-99 6-206-2-175 0-196 16-209 13-11 8-10-21 2-51 20-107 65-140 112-43 62-57 117-57 219v94h94c62 0 97-4 102-12zm4664-606c0-109-21-183-66-239-51-62-64-74-76-67-6 4-8 3-5-3 4-6-5-15-20-22-21-10-24-9-20 3 4 9 0 12-11 9-16-4-17 13-17 196v200l30 4c17 2 65 5 108 5l77 2v-88zm-807 67c15-7 27-20 27-29s3-20 7-24 6-22 5-41c-2-18 2-36 8-40 8-5 9-10 2-14-9-5-16-105-11-161 1-8-3-34-9-57-6-28-6-43 1-46 5-1 3-10-6-19-26-26-1-25-2185-44-421-3-612-2-607 5 3 6-11 13-35 17-29 5-38 10-31 17 16 16 13 35-5 39-10 2-18 15-20 31-2 21 2 27 17 27 11 0 19 7 19 16 0 8-4 12-10 9-21-13-26 6-17 72 4 37 8 92 7 121-1 38 2 52 13 52 7 0 14 7 14 15 0 11-4 12-11 5-13-13-29-13-20 1 3 6 0 15-7 20-20 12 3 11 37-1 19-8 29-8 34 0 9 15 209 20 1130 26 454 3 830 7 835 8 6 2 186 4 401 5 290 2 397-1 417-10zm-3676-25c-3-4 0-12 6-19 10-9 13-59 13-183-1-93 2-168 7-165 14 8 7-7-12-26-18-18-20-18-48-1-43 26-102 101-124 160-14 37-19 76-19 145v95h92c50 0 89-3 85-6zm3853-555c9-16 24-379 22-544 0-11-1-158-3-327-2-273-4-308-18-309-12 0-11-3 4-9 14-6 2-9-42-9l-63-1v775l-571-3c-533-3-571-2-565 14 5 13 2 15-13 11-11-2-22 0-24 7-7 18-1 229 7 255 5 15 5 21-2 17-6-4-8 9-5 36 5 32 2 44-12 54-17 12-16 14 11 25 30 12 351 21 966 27 293 2 297 2 308-19zm-2164-15c-4-10-1-21 6-26 7-4 9-8 3-8s-9-46-8-122c14-990 23-3910 12-3930-7-14-6-18 6-18 8 0 15-4 15-9 0-6-8-8-18-6-28 5-786 474-1115 690-154 101-170 118-143 154 9 11 6 12-14 6s-23-5-12 6c14 16 16 33 2 24s-12 60 4 120c8 28 10 57 6 65-13 27-20 80-10 80 5 0 7 6 5 13-9 23 10 132 23 133 24 3 24 4 11 21-8 10 1 6 19-7 19-14 41-29 50-35 44-26 356-221 527-328 105-66 251-158 325-205 74-46 144-92 155-102 51-44 49-99 41 841-4 480-9 876-11 879-2 4-5 251-7 551-1 299-4 599-6 666l-4 121-570-5c-518-4-570-3-565 11 5 11 1 16-13 16-22 0-27 16-8 22 9 3 8 19-1 65-10 44-11 84-5 140 5 43 8 91 6 107-1 16 3 35 9 43 10 11 8 12-17 3-21-8-26-8-18 0 16 16 63 21 264 26 102 3 192 6 200 8 8 1 206 4 439 5 397 2 423 1 417-15zm335-276c1-161 2-342 4-403 2-99 6-599 20-2280 2-302 8-738 11-967 4-254 3-418-2-418-13 0-56 31-76 55-15 18-17 58-18 375-1 492-15 2216-26 3302-3 312-3 581 1 597 6 28 10 31 46 31h39l1-292zm190-95c1-214 3-424 4-468s4-458 8-920c11-1488 19-2287 22-2413l3-122-36-25c-20-14-40-25-44-25s-7 267-8 593c0 325-3 849-6 1162-3 314-8 1028-11 1588l-5 1017h72l1-387zm1895 287c3-23 5-24 13-11 6 10 16 1 36-34 52-87 53-99 57-455 3-335 3-335-24-392-14-31-41-71-59-90-20-20-29-25-23-13 13 28 5 966-8 983-6 6-7 12-3 12s1 8-6 18c-11 15-11 15 1 4 8-7 16-17 16-22zm-4072-536c5-526 8-503-52-389-27 50-27 50-30 366-2 191 0 338 7 372 9 51 56 145 67 134 2-2 6-219 8-483zm3833-1076c4-7 8-96 9-198 0-102 4-234 7-295 8-127 8-145 4-560-1-170 0-332 4-358 3-27 2-50-4-54-5-3-3-9 4-15 11-7 11-11 1-15-6-2-9-9-6-14 3-6 11-6 18-2 50 33-108-85-179-134-131-89-884-575-983-633-69-41-152-62-152-39 0 8 15 13 33 10 11-2 8 17-4 21-26 9-44 333-19 363 7 8 7 16 2 19s-10 24-10 46c-1 31 3 39 16 38 33-2 53 2 47 11-6 10 11 24 33 27 7 2 21 11 31 22 26 30 1012 692 1031 692 14 0 15 55 10 343l-5 268-357-1-358-1v84c0 115 27 191 92 263 61 66 121 103 185 114 27 4 159 8 295 9 188 1 249-2 255-11zm329-201c28-62 28-62 29-517v-455l-32-65c-18-36-44-77-58-90l-26-24 14 40c9 24 13 71 12 124-6 203-6 950-1 959 4 5 2 12-3 16-6 3-7 13-4 21 3 9 7 25 8 37s3 26 4 31c3 19 30-18 57-77zm-4147-543c0-305 3-559 6-564 3-4-3-7-12-6-10 2-29 25-43 52-25 48-25 49-33 439-4 214-6 422-4 460 5 73 29 157 47 163 5 2 10 11 10 19 0 12 3 13 14 4 12-10 14-101 15-567zm358 14c-3-7-5-2-5 12s2 19 5 13c2-7 2-19 0-25zm2210-790c-3-8-6-5-6 6-1 11 2 17 5 13 3-3 4-12 1-19zm0-157c3-31 1-51-5-51s-11 25-11 56c0 68 9 64 16-5zm12-133c1-5-3-8-9-8-5 0-10 12-9 28 0 24 1 25 9 7 5-11 9-23 9-27zm15-530c-3-4-12-8-20-8s-14 4-14 8 9 8 19 8c11 0 17-4 15-8zm-16 495c7-3 16-2 19 1 4 3-2 6-13 5-11 0-14-3-6-6zm2-433c8-5 20-10 25-10 6 0 3 5-5 10s-19 10-25 10c-5 0-3-5 5-10z"/></g></svg><svg xmlns="http://www.w3.org/2000/svg" width="1600" height="1600" version="1.0" viewBox="0 0 1600 1600"><g fill="#a28142" transform="matrix(.1 0 0 -.1 0 1600)"><path d="M0 8000V0h16000v16000H0V8000zm10463 2606c19-206-95-369-280-400-18-3-35-1-38 4-7 12-7 241 0 335 10 123 1 114 113 118 53 1 120 4 148 5l51 2 6-64zm-689 48c46-7 46-7 46-50 0-23 4-45 9-48 4-3 8-29 9-58 0-29 3-68 6-87s1-42-5-52c-6-12-6-34 2-63 14-57 1-82-49-95-48-13-1731-31-2811-31-727 0-823 2-805 15 18 14 18 14-4 15-13 0-21 4-18 9 4 5 0 12-6 15-10 5-10 7 0 12 13 6 16 42 5 70-6 16-7 16-14-2-6-16-8-15-8 9-1 15-5 27-11 27-5 0-10 9-10 20s5 20 10 20c6 0 10 23 10 50 0 38 4 50 15 50s15 11 15 40c0 22 5 40 10 40 21 0 9 20-12 21-19 1-17 3 7 9 30 8 30 8-5 9-34 2-34 3-10 13 33 14 621 25 1890 34 564 4 1027 8 1029 10 8 7 656 4 705-2zm-4100-44c8-8 19-158 18-255-1-27-1-76-2-107 0-31-5-60-10-63-6-4-8-11-4-16 10-16-109 41-146 70-45 35-97 112-111 164-14 48-17 196-5 215 6 10 35 12 129 6 67-3 126-10 131-14zm4596-615c0-114-21-185-75-251-59-71-148-117-202-102-26 7-31 12-27 31 7 35 14 141 17 273 2 66 7 126 11 132 5 8 49 12 142 12h134v-95zm-598 76c21-8 26-17 28-53 6-103 2-230-8-240-8-8-6-18 6-36 14-22 14-27 1-51-12-20-13-31-5-43 6-10 8-20 4-23-13-14-3301-44-3370-31-33 6-38 10-38 35 0 17-7 31-16 35-8 3-12 11-8 17 3 6 8 66 10 132 2 67 5 139 6 160 3 30 0 37-14 37-10 0-18 5-18 11 0 5-6 7-12 4-7-4-4 1 6 9 21 17 109 20 138 5 9-5 18-5 20 0 5 15 217 19 1188 27 498 4 906 8 908 9 10 8 1152 4 1174-4zm-3822-31c16-8 18-25 20-132 6-264-2-326-36-297-8 6-14 9-14 5 0-16-80 37-119 79-71 77-91 132-91 253v102h111c61 0 119-4 129-10zm3855-539c17-5 26-10 22-10-5-1-5-7 0-13 4-7 9-20 10-28 8-41 11-1082 3-1109-7-26-6-31 8-32 13 0 12-2-4-9-12-5-61-10-110-12l-89-3-5 388-5 389-559-2c-308 0-563-3-569-7-11-6 1-3009 13-3081 0-2 149 97 331 220s435 291 562 375l232 151 3 302 2 301-357-2-358-1v103c0 92 3 111 27 161 33 71 100 138 176 175 57 28 57 28 337 31 268 3 399-2 379-16-9-7-13-92-4-92 3 0 4-55 2-123-4-149-4-155 4-242 8-77 8-418 1-477-2-21-1-38 3-38s6-42 4-92c-10-261-11-309-5-312 3-2 6-23 6-46 0-41-2-44-75-96-179-128-898-597-1283-836-38-24-84-53-103-65-39-26-60-31-29-7 19 15 19 15-7 9-22-6-28-4-28 10 0 9 5 13 11 9 8-5 9 6 4 36-4 23-8 76-9 116 0 41-4 74-8 74-11 0-10 34 1 45 15 17 25 195 11 195-9 0-9 4-2 13 13 15 15 147 3 147-6 0-6 13 0 33 8 28 6 126-6 222-12 107-14 149-5 125 9-23 9-23 4 5-7 37-7-19 0 582 4 327 2 504-4 508-6 3-10 14-10 23 0 11 3 13 8 6 4-7 8 30 9 82s-2 94-6 94-6 57-4 128c2 70 0 179-4 242-5 63-6 150-3 193 3 46 1 78-5 80s-5 14 3 31c9 20 10 38 3 64-8 31-10 74-11 217 0 11 0 103-1 205 0 102-2 210-3 240-2 30 2 82 9 115s13 99 14 148c1 76-1 87-17 87-15 0-15 2-2 10 12 8 12 10-5 11-20 0-20 1 0 8 19 8 19 8 0 18-18 10-17 11 5 11 166 2 647 14 655 16 27 8 804 5 830-3zm-2152-112c-1-57 1-108 4-113 4-5 8-257 11-560 2-303 5-585 5-626 1-41 0-169-1-285-1-115 0-282 2-370 6-271 7-725 3-732-3-5-1-31 3-58 4-28 6-317 4-644-2-326-1-598 3-604 9-15 10-77 1-71-4 3-8-2-8-11 0-11-5-15-15-11-33 12-772 472-1240 770-27 18-88 57-135 87-47 29-88 58-92 64-4 5-12 11-18 11-21 3-22 4-11 18 9 11 6 12-16 8-27-4-28-4-8 12 11 10 16 19 10 22-6 2-9 74-8 192 4 369-2 856-12 871-3 6-2 11 3 11s10 48 11 108c3 166 4 171 18 176 7 3 13 13 13 21 0 9-4 13-10 10-5-3-10 3-10 15s-4 18-10 15c-5-3-10 2-10 12 0 20 11 23 110 26l65 2v-50c0-27 2-267 3-533 2-449 3-483 20-489 9-3 33-19 52-33 19-15 130-86 245-158 116-71 275-171 355-222s179-114 220-140c189-117 216-134 231-147 8-7 19-13 23-13 7 0-3 1449-10 1461-2 4-4 247-6 540-1 294-3 657-6 807l-4 273-226-6c-125-4-378-6-562-6-190 0-342-4-350-9-8-6-10-10-5-10 6 0 11-136 13-380l3-380-98 1c-54 1-88 4-75 6 21 4 22 6 8 16-13 10-14 19-4 56 9 35 8 45-3 52s-11 9-1 9 12 8 7 29c-14 63-15 121-2 121 9 0 8 3-2 9-8 5-9 11-3 15 12 7 12 386 0 386-15 0-8 71 8 87 8 9 12 19 7 22s-8 18-8 34c1 15-3 27-8 27-4 0-6 9-2 19 3 11 2 22-3 24-4 3-9 22-10 42-2 23 1 34 8 30 6-4 10 12 10 45 0 27 5 58 11 68 8 13 7 27-4 55-14 33-14 37-1 37 8 0 12 5 9 10-4 6 13 11 42 11 26 1 122 5 213 8s408 8 705 9l540 4-2-103zm261-301c3-222 8-722 11-1113 9-1246 15-1867 21-2362 5-340 3-483-4-483-21 0-135 85-138 103-1 9 1 17 4 17 7 0 7 51-2 1245-12 1531-19 2939-16 2988 0 4 26 7 59 7h58l7-402zm220 385c2-10 7-405 11-878 5-753 8-1272 20-2905 3-502 2-473 20-466 8 3 15 4 15 2 0-8-129-96-139-96-8 0-11 177-11 588-1 323-3 740-6 927s-7 765-9 1285c-3 520-7 1083-9 1253l-5 307h54c43 0 55-4 59-17zm1907-116c51-70 57-114 64-453 7-303 7-314-14-377-20-60-89-157-111-157-4 0-9 215-10 478-1 262-3 488-5 502-16 100-17 93 16 69 17-12 44-40 60-62zm-4081-487c-1-275-5-502-9-505-13-7-60 52-85 105-20 43-21 61-21 405 0 334 1 363 19 395 28 53 77 111 87 104 5-3 9-213 9-504zm2359 408c0-27-2-29-8-13-5 11-6 26-4 33 8 21 13 13 12-20zm1725-1625c14-17 36-52 48-79 23-49 23-52 23-509v-460l-32-65c-26-54-73-120-85-120-5 0-6 33-11 667-3 337-9 618-13 625-13 20 42-26 70-59zm-1704 1c0-8-5-12-10-9-6 4-8 11-5 16 9 14 15 11 15-7zm-2373-37c1-12 5-274 7-582 2-404 0-564-8-574-8-11-8-13 0-8 8 4 11-1 10-17-4-74-98 64-114 168-5 34-10 237-11 451-3 428 2 472 56 544 43 57 54 60 60 18zm2373-239c0-16-3-19-11-11-6 6-8 16-5 22 11 17 16 13 16-11zm-1980 2652c0-5 9-10 21-10 11 0 17 5 14 10-3 6-13 10-21 10s-14-4-14-10z"/></g></svg><svg xmlns="http://www.w3.org/2000/svg" width="1600" height="1600" version="1.0" viewBox="0 0 1600 1600"><g fill="#6d5e32" transform="matrix(.1 0 0 -.1 0 1600)"><path d="M0 8000V0h16000v16000H0V8000zm10468 2592c8-193-96-346-263-386-63-15-1088-27-3500-42-1010-7-1010-7-1075 17-83 29-176 118-203 194-20 54-34 187-24 227 7 25 7 25 653 27 355 0 649 3 653 5 3 2 416 7 916 11 501 4 1295 11 1765 15s905 6 965 6l110-1 3-73zm-200-614c-3-88-9-124-25-160-30-66-95-133-162-165-56-28-56-28-366-36-480-11-1810-23-2880-25-970-2-970-2-1024 23-92 43-152 106-185 196-17 44-28 172-19 215 4 21 4 21 726 29 397 5 760 9 807 10s697 5 1445 10c748 4 1362 9 1364 11s76 4 164 4h159l-4-112zm-533-482c143-38 242-143 263-281 5-31 9-195 8-363-1-307-1-307-29-364-36-72-91-128-169-168-54-27-76-32-164-37l-102-6-7 366c-4 202-5 378-2 393l5 26-565-5-565-4 1-799c1-799 11-2266 16-2272 3-3 235 148 405 265 58 39 243 163 413 274l307 204v597l-357-4-358-3-3 94c-3 103 10 154 60 227 34 51 76 87 142 122 51 27 51 27 386 27s335 0 391-26c79-37 133-90 171-167l33-67v-465c0-465 0-465-29-525-39-78-135-174-267-264-57-39-138-95-179-123-42-29-118-81-170-114-52-34-237-153-410-266-173-112-439-282-590-378s-302-193-335-217c-32-24-65-43-72-43-10 0-13 104-15 538-1 295-2 582-3 637-3 136-14 1882-18 2604l-2 584 445 5c245 2 447 6 449 8s198 4 435 4c327 0 443-3 481-14zm-1939-4c17-11 23-303 29-1352 3-520 8-1064 10-1210 3-146 8-613 11-1039 5-647 4-772-8-766-7 5-56 36-108 70s-171 109-265 166c-279 169-1339 834-1451 910-88 59-153 121-194 184-68 104-70 123-67 615 2 435 2 435 30 492 33 67 92 122 174 163 50 25 72 30 161 33l102 4 1-463c1-255 2-480 3-499 6-116-3-101 104-172 53-36 169-111 257-165 336-209 741-466 756-479s17-11 24 23c4 21 4 171 1 333-6 281-8 475-22 2025-4 369-9 674-11 678-3 5-21 6-42 2-20-3-271-6-558-7l-523-2v-784l-98 3c-86 2-105 5-163 33-80 38-139 93-176 164-28 53-28 53-33 353-7 344 0 429 36 491 33 56 102 117 171 151 52 25 67 27 242 34 102 4 499 8 881 8 382 1 696 4 699 6 6 7 14 6 27-3z"/></g></svg><svg xmlns="http://www.w3.org/2000/svg" width="1600" height="1600" version="1.0" viewBox="0 0 1600 1600"><g fill="#393015" transform="matrix(.1 0 0 -.1 0 1600)"><path d="M0 8000V0h16000v16000H0V8000zm10469 2562c-4-98-7-114-37-174-36-74-95-133-170-169-46-23-55-23-472-30-234-4-828-9-1320-13-492-3-1055-8-1250-11s-620-6-945-7c-648-1-641-2-726 60-104 77-144 162-144 307v100l690 8c600 6 3481 31 4144 35l233 2-3-108zm-192-569c-4-54-14-122-22-150-29-98-132-191-240-217-49-12-228-16-975-21-503-4-926-8-940-10-14-1-524-4-1135-6l-1110-4-63 34c-124 67-182 164-190 317-3 61-1 98 6 107 9 11 129 14 634 15 343 2 670 4 728 7 58 2 530 7 1050 11 520 3 946 7 947 8 1 0 297 3 659 5l657 3-6-99zm-475-516c76-37 143-104 176-175 27-57 27-57 27-412v-355l-34-63c-40-74-94-124-171-160-44-20-75-26-156-30l-101-4-6 53c-4 30-7 207-7 393v339l-317-6c-174-4-426-7-560-7h-245l8-1527c3-841 8-1530 10-1532 5-6 74 38 289 182 110 74 343 228 517 343l317 209v282c1 155-1 287-4 295-5 11-67 13-360 10l-355-4v107c0 98 2 112 30 170 38 80 118 156 196 185 54 20 72 21 383 18 326-3 326-3 384-33 74-37 149-118 175-188 18-48 20-85 23-497 4-445 4-445-19-502-45-111-122-191-302-314-52-35-120-82-150-103-30-22-120-82-200-133-280-182-826-535-958-619-73-46-197-126-274-176-78-51-147-93-155-93-11 0-13 59-14 318-2 555-4 642-12 642-5 0-6 4-2 9 3 5 5 65 4 133v141c0 9-5 17-11 17-7 0-6 5 1 14 9 10 10 166 7 612-3 330-8 991-12 1471-3 479-6 877-7 885 0 7 1 39 1 70l2 58 348 3c191 1 601 2 912 2 565 0 565 0 622-28zm-1986-22c1-40 17-2061 18-2277 1-64 3-115 6-113s4-69 2-158c-2-121 1-163 10-169 10-5 10-8 1-8s-11-86-8-357c5-553 7-1245 3-1249s-39 17-190 111c-61 39-211 131-332 207-122 75-246 152-276 171s-194 122-365 229c-742 466-737 463-809 537-33 36-70 88-89 128l-32 68v470c0 470 0 470 24 520 58 118 164 182 323 198 55 5 103 5 108 1 8-9 19-473 20-854l1-215 47-32c26-18 81-53 122-79 296-188 695-439 795-502 66-41 131-82 144-91 24-15 24-15 18 749-12 1405-17 1853-23 2078l-6 223-457-5c-251-3-503-5-560-5l-104-1 6-367c4-203 4-378 1-390-6-22-11-23-95-23-73 0-101 5-155 27-90 36-172 115-204 198-23 58-24 68-24 390-1 235 3 342 11 371 30 96 117 184 226 227 51 20 71 21 862 24 446 2 817 5 825 7s47 3 85 3c70-2 70-2 71-42z"/></g></svg><svg xmlns="http://www.w3.org/2000/svg" width="1600" height="1600" version="1.0" viewBox="0 0 1600 1600"><g transform="matrix(.1 0 0 -.1 0 1600)"><path d="M0 8000V0h16000v16000H0V8000zm10448 2673c23-6 24-8 20-117-3-95-7-119-29-166-35-72-100-136-174-171-60-29-60-29-785-37-399-5-1139-12-1645-16-582-4-921-10-923-16s-10-10-18-10c-9 0-12 5-9 11 5 7-167 8-596 3l-604-7-77 37c-92 43-156 110-189 194-17 45-22 77-21 151 0 51 2 95 4 97 5 4 1572 20 3413 34 1310 10 1557 13 1595 18 8 1 25-1 38-5zm-170-651c5-133-20-217-88-295-40-45-133-101-185-110-16-3-300-8-630-12-330-3-778-7-995-10s-783-8-1257-11c-630-5-863-10-863-18s-2-8-8 1c-5 8-68 12-207 15-194 3-201 4-250 30-67 35-129 99-162 167-23 47-28 72-32 159-2 57 1 107 5 112 8 7 350 11 1879 25 127 1 736 5 1355 10 619 4 1126 8 1127 9 1 0 70 1 155 1h153l3-73zm-4023 58c3-5 1-10-4-10-6 0-11 5-11 10 0 6 2 10 4 10 3 0 8-4 11-10zm2282-496c-3-3-12-4-19-1-8 3-5 6 6 6 11 1 17-2 13-5zm1173-74c83-16 131-41 192-98 55-51 82-98 97-164 6-25 11-192 12-372 1-328 1-328-30-389-59-122-156-191-288-207-44-6-95-8-114-6-19 3-37 5-41 5-5 1-8 177-8 393v391l-97-6c-54-4-307-7-562-7h-463l6-487c3-269 7-957 8-1530l3-1041 36 21c72 44 362 233 422 277 34 24 195 132 357 238 162 107 297 199 300 205 3 7 3 139 0 295l-5 283-352-1h-352l-7 36c-14 75 1 176 36 248 57 115 153 182 283 197 101 11 543 11 595-1 116-27 222-114 260-215 20-53 22-80 28-488 7-428 7-433-15-499-51-153-109-207-511-475-157-104-688-450-937-609-117-75-166-107-363-233-247-160-240-156-250-141-4 7-8 222-9 478-1 291-6 471-12 478-7 8-6 14 1 19 13 8 13 110 0 135-7 13-7 21 0 25 13 8 13 54-1 94-9 25-9 38 1 56 8 15 10 37 6 62-8 40-9 74-4 138 1 22-2 587-6 1255-12 1649-12 1618-6 1624 3 3 294 9 645 13 352 4 739 10 860 12 149 2 241-1 285-9zm-1890-286c1-154 3-358 5-454 6-227 19-1670 16-1777-1-55 2-83 9-83 6 0 8-5 4-12-13-21-15-100-3-135 9-27 9-37-1-43-12-7-9-127 4-148 3-6 2-14-4-17-7-4-9-28-6-58 3-29 5-54 5-57s2-299 4-658c4-524 2-654-8-658-7-3-66 29-131 71-66 42-171 108-234 147-329 203-606 376-1012 632-114 72-275 173-357 225-178 112-241 164-293 245-64 99-66 114-72 575-5 438-3 478 39 561 27 53 95 120 153 149 50 26 151 43 227 39l60-3 5-532 5-532 56-40c31-22 211-138 400-257s373-235 409-258c36-24 101-64 145-91 44-26 88-55 99-64 18-16 18-6 12 394-3 226-8 754-12 1175-3 421-7 790-9 820s-4 191-4 358l-1 302h-85c-50 0-93-5-105-12-15-10-22-10-32 0-12 12-70 17-81 6-3-3-186-5-406-5l-401 2v-33c0-18-1-193-3-388l-2-355h-110c-99 0-115 3-165 27-85 42-135 91-172 166l-33 67v355c0 355 0 355 27 411 36 73 98 133 178 172 62 31 69 32 225 37 88 3 496 7 908 9l747 3v-278z"/></g></svg></g></svg>