<?xml version="1.0" encoding="UTF-8" standalone="no"?>
<!-- Created with Inkscape (http://www.inkscape.org/) -->

<svg
   width="35.009644mm"
   height="26.753948mm"
   viewBox="0 0 35.009644 26.753948"
   version="1.1"
   id="svg1"
   xmlns:inkscape="http://www.inkscape.org/namespaces/inkscape"
   xmlns:sodipodi="http://sodipodi.sourceforge.net/DTD/sodipodi-0.dtd"
   xmlns="http://www.w3.org/2000/svg"
   xmlns:svg="http://www.w3.org/2000/svg">
  <sodipodi:namedview
     id="namedview1"
     pagecolor="#ffffff"
     bordercolor="#000000"
     borderopacity="0.25"
     inkscape:showpageshadow="2"
     inkscape:pageopacity="0.0"
     inkscape:pagecheckerboard="0"
     inkscape:deskcolor="#d1d1d1"
     inkscape:document-units="mm" />
  <defs
     id="defs1" />
  <g
     inkscape:label="Layer 1"
     inkscape:groupmode="layer"
     id="layer1"
     transform="translate(-111.47106,-108.90733)">
    <g
       inkscape:groupmode="layer"
       id="layer1-2"
       inkscape:label="2"
       transform="matrix(0.034711,0,0,0.034711,53.673948,38.262746)"
       inkscape:export-filename="layer1-2.svg"
       inkscape:export-xdpi="96"
       inkscape:export-ydpi="96">
      <g
         id="g980"
         transform="matrix(0.32310771,0,0,0.32310771,1092.225,1796.4453)"
         style="fill:#ffb80c;fill-opacity:1">
        <path
           id="path187"
           d="m 1961.3587,3023.2666 -48.7506,-113.0134 -48.3827,113.0134 z m 15.8813,37.6666 h -129.2666 l -25.484,59.84 h -49.4893 l 116.3386,-258.5333 h 47.276 l 116.7067,258.5333 h -50.2267 l -25.8547,-59.84"
           style="fill:#ffb80c;fill-opacity:1;fill-rule:nonzero;stroke:none;stroke-width:0.133333" />
        <path
           id="path188"
           d="m 2125.7147,2902.8666 h -85.6867 v -40.6267 h 219.3854 v 40.6267 h -85.6854 v 217.9066 h -48.0133 v -217.9066"
           style="fill:#ffb80c;fill-opacity:1;fill-rule:nonzero;stroke:none;stroke-width:0.133333" />
        <path
           id="path189"
           d="m 2351.7414,2902.8666 h -85.6854 v -40.6267 h 219.3854 v 40.6267 h -85.6854 v 217.9066 h -48.0146 v -217.9066"
           style="fill:#ffb80c;fill-opacity:1;fill-rule:nonzero;stroke:none;stroke-width:0.133333" />
        <path
           id="path190"
           d="m 2685.252,3070.7199 c 13.7867,-7.7467 24.6134,-18.5867 32.4934,-32.4933 7.88,-13.9067 11.8133,-29.48 11.8133,-46.72 0,-17.24 -3.9333,-32.8134 -11.8133,-46.72 -7.88,-13.9067 -18.7067,-24.7467 -32.4934,-32.5067 -13.8,-7.76 -29.3066,-11.6267 -46.5466,-11.6267 -17.2334,0 -32.7467,3.8667 -46.5334,11.6267 -13.792,7.76 -24.624,18.6 -32.4986,32.5067 -7.8854,13.9066 -11.82,29.48 -11.82,46.72 0,17.24 3.9346,32.8133 11.82,46.72 7.8746,13.9066 18.7066,24.7466 32.4986,32.4933 13.7867,7.76 29.3,11.64 46.5334,11.64 17.24,0 32.7466,-3.88 46.5466,-11.64 z m -117.824,36.56 c -21.18,-11.44 -37.8,-27.32 -49.8613,-47.64 -12.064,-20.3067 -18.096,-43.0267 -18.096,-68.1333 0,-25.12 6.032,-47.8267 18.096,-68.1467 12.0613,-20.3067 28.6813,-36.2 49.8613,-47.64 21.1707,-11.4533 44.932,-17.1733 71.2774,-17.1733 26.3466,0 50.1066,5.72 71.28,17.1733 21.1866,11.44 37.8,27.2667 49.8533,47.4533 12.08,20.2 18.1067,42.9734 18.1067,68.3334 0,25.36 -6.0267,48.1333 -18.1067,68.32 -12.0533,20.1866 -28.6667,36.0133 -49.8533,47.4533 -21.1734,11.4533 -44.9334,17.1867 -71.28,17.1867 -26.3454,0 -50.1067,-5.7334 -71.2774,-17.1867"
           style="fill:#ffb80c;fill-opacity:1;fill-rule:nonzero;stroke:none;stroke-width:0.133333" />
        <path
           id="path191"
           d="m 2980.7054,2916.1599 c -10.8267,-8.8667 -26.72,-13.2933 -47.64,-13.2933 h -56.1334 v 103.04 h 56.1334 c 20.92,0 36.8133,-4.4934 47.64,-13.48 10.84,-8.9867 16.2533,-21.7334 16.2533,-38.2267 0,-16.4933 -5.4133,-29.1733 -16.2533,-38.04 z m 17.36,204.6133 -52.8134,-75.72 c -2.2133,0.2534 -5.5466,0.3734 -9.9733,0.3734 h -58.3467 v 75.3466 h -48.0133 v -258.5333 h 106.36 c 22.4,0 41.92,3.6933 58.5467,11.08 16.6133,7.3867 29.36,17.9733 38.2266,31.76 8.8667,13.7867 13.2934,30.16 13.2934,49.12 0,19.4533 -4.7467,36.2 -14.2267,50.2267 -9.48,14.04 -23.08,24.5066 -40.8,31.4 l 59.4533,84.9466 h -51.7066"
           style="fill:#ffb80c;fill-opacity:1;fill-rule:nonzero;stroke:none;stroke-width:0.133333" />
        <path
           id="path192"
           d="m 3328.612,2862.2399 v 258.5333 h -39.5066 L 3146.532,2945.7066 v 175.0666 h -47.64 v -258.5333 h 39.52 l 142.56,175.0667 v -175.0667 h 47.64"
           style="fill:#ffb80c;fill-opacity:1;fill-rule:nonzero;stroke:none;stroke-width:0.133333" />
        <path
           id="path193"
           d="m 3591.9453,3080.5066 v 40.2666 H 3398.052 v -258.5333 h 188.7333 v 40.2533 h -140.72 v 67.2134 h 124.8267 v 39.52 h -124.8267 v 71.28 h 145.88"
           style="fill:#ffb80c;fill-opacity:1;fill-rule:nonzero;stroke:none;stroke-width:0.133333" />
        <path
           id="path194"
           d="m 3754.0787,3029.5466 v 91.2266 h -48.0134 v -90.4933 l -101.56,-168.04 h 51.3334 l 75.72,125.9333 76.4533,-125.9333 h 47.2667 l -101.2,167.3067"
           style="fill:#ffb80c;fill-opacity:1;fill-rule:nonzero;stroke:none;stroke-width:0.133333" />
        <path
           id="path195"
           d="m 4036.612,2902.4932 v 78.6667 h 124.84 v 40.6267 h -124.84 v 98.9866 h -48.0133 v -258.5333 h 188.7333 v 40.2533 h -140.72"
           style="fill:#ffb80c;fill-opacity:1;fill-rule:nonzero;stroke:none;stroke-width:0.133333" />
        <path
           id="path196"
           d="m 4223.8653,2862.2399 h 48.0134 v 258.5333 h -48.0134 v -258.5333"
           style="fill:#ffb80c;fill-opacity:1;fill-rule:nonzero;stroke:none;stroke-width:0.133333" />
        <path
           id="path197"
           d="m 4493.4787,2916.1599 c -10.84,-8.8667 -26.72,-13.2933 -47.64,-13.2933 h -56.1467 v 103.04 h 56.1467 c 20.92,0 36.8,-4.4934 47.64,-13.48 10.84,-8.9867 16.2533,-21.7334 16.2533,-38.2267 0,-16.4933 -5.4133,-29.1733 -16.2533,-38.04 z m 17.36,204.6133 -52.8134,-75.72 c -2.2266,0.2534 -5.5466,0.3734 -9.9733,0.3734 h -58.36 v 75.3466 h -48.0133 v -258.5333 h 106.3733 c 22.4,0 41.92,3.6933 58.5333,11.08 16.6267,7.3867 29.36,17.9733 38.2267,31.76 8.8667,13.7867 13.3067,30.16 13.3067,49.12 0,19.4533 -4.7467,36.2 -14.2267,50.2267 -9.48,14.04 -23.08,24.5066 -40.8133,31.4 l 59.4666,84.9466 h -51.7066"
           style="fill:#ffb80c;fill-opacity:1;fill-rule:nonzero;stroke:none;stroke-width:0.133333" />
        <path
           id="path198"
           d="m 4849.1453,3120.7732 -0.3733,-171.3733 -84.9467,141.8267 h -21.4267 l -84.9466,-139.6134 v 169.16 h -45.7867 v -258.5333 h 39.5067 l 102.68,171.36 100.8266,-171.36 h 39.52 l 0.3734,258.5333 h -45.4267"
           style="fill:#ffb80c;fill-opacity:1;fill-rule:nonzero;stroke:none;stroke-width:0.133333" />
        <path
           id="path213"
           d="m 3670.5187,2536.1199 c 87.8133,-34.3733 167.84,-80.0533 239.7733,-137.7733 82.9333,-66.52 149.8933,-144.5067 201.5733,-233.5867 30.1467,-51.9867 53.6,-106.4266 70.2134,-163.3733 14.1333,-48.4133 25.2133,-97.32 29.44,-147.3333 5.6533,-66.7867 3.52,-133.3334 -8.1334,-199.6 -11.1466,-63.3867 -29.9466,-124.72 -56.8533,-183.9734 -36.24,-79.8266 -85.2,-152.48 -146.5867,-218.1733 -59.6533,-63.8133 -128.6933,-117.5333 -206.1866,-162.24 -2.8934,-1.6667 -5.4267,-5.0133 -9.7467,-3.4133 1.0133,2.5333 3.8533,3.04 5.96,4.2933 79,47.32 148.12,104.72 207.2267,172.12 64.4133,73.4667 113.64,154.72 147.36,243.8533 29.5333,78.0667 45.28,158.5067 48.3066,240.9067 2.3734,64.5067 -4.16,128.44 -18.5066,191.72 -20.0667,88.48 -55.48,171.4266 -105.7334,249.0933 -1.64,2.52 -1.88,6.8533 -6.88,6.52 0.4134,6.6267 -3.6266,10.9067 -9.08,14.4533 -2.6,6.8934 -4.5466,14.2267 -13.5466,16.6934 2.4133,5.2133 -2.4934,8.04 -4.9867,11.3066 -23.68,31.0534 -49.2667,60.72 -77.48,88.4534 -72.28,71.0933 -155.3733,129.04 -249.9067,173.0933 -62.7066,29.2133 -128.2666,51.3067 -196.8,65.9467 -36.5066,7.7866 -73.2666,14.6266 -108.56,26.6 -18.4666,6.2666 -36.32,13.76 -54.0666,22.0666 -44.88,-22.6933 -93.3333,-35.0533 -142.6667,-44.7333 -74.2266,-14.56 -145.28,-37.1333 -213.0533,-68.5067 -60.1067,-27.8266 -116.1067,-61.3733 -167.96,-100.7466 -28.64,-21.7334 -55.48,-45.2534 -80.96,-70.0534 -2.6667,-2.5866 -7.6933,-4.3866 -6.36,-9.4266 -5.7333,-0.8534 -7.7867,-3.32 -6.7733,-8.0934 -4.6267,3.4 -5.6667,-1.76 -7.2134,-3.3333 -20.6666,-21.12 -39.9733,-43.2533 -57.56,-66.6133 -8.4666,-11.2534 -18.0266,-21.8667 -23.9466,-34.6 -2.4267,-0.64 -3.6,-1.8534 -2.44,-4.1467 -0.4667,0.067 -0.9334,0.12 -1.5067,0.1867 -0.2267,-0.7734 -0.4533,-1.5467 -0.68,-2.32 -2.3867,-0.6667 -3.0533,-2.7867 -4.1467,-4.4267 -22.2773,-33.6 -42.0786,-68.4 -58.896,-104.56 -38.9786,-83.7866 -61.7693,-171.2533 -68.8213,-262.08 -4.9213,-63.36 -1.8267,-126.52 9.412,-189.1866 12.5307,-69.8667 34.5973,-137.1867 66.4733,-201.8 60.512,-122.6534 148.9254,-225.12 264.1787,-308.3334 20.2,-14.5866 41.3867,-27.92 63.0267,-41.2266 -4.1867,-2.0667 -6.32,0.6133 -8.6534,2.0266 -14.2133,8.6134 -28.5466,17.08 -42.44,26.1067 -94.6,61.3867 -173.2266,136.92 -235.5666,226.36 -83.7614,120.1733 -129.9214,251.8267 -138.648,394.16 -4.7907,78.1467 2.4506,155.5467 21.9826,231.9067 25.548,99.88 70.2374,191.9733 133.5387,276.4133 48.8133,65.12 107.0133,122.36 174.08,172.12 73.08,54.2266 153.5467,96.4666 241.16,127.5466 48.1333,17.08 97.92,28.7067 148.0533,39.5067 41.08,8.8533 79.8534,23.2133 115.5467,44.2933 -2.0134,3.08 -5.1467,4.52 -7.8934,6.2934 -18.3733,11.88 -34.5199,26.04 -49.9733,40.9066 -2.84,2.7467 -5.9866,5.2934 -6.8533,9.3734 -3.6533,17.2133 0.28,33.24 8.3333,50.28 25.7734,-33.1334 53.2,-62.6267 87.48,-86.6134 34.3867,24.16 61.9867,53.6667 87.5467,86.1467 7.9733,-15.0933 10.6266,-29.2 9.4533,-44.0667 -0.44,-5.48 -2.3067,-9.9466 -6.4133,-14 -12.44,-12.2266 -25.68,-23.6533 -40,-34.0133 -6.4,-4.64 -12.92,-9.16 -19.5867,-13.88 44.0267,-27.0933 92.9733,-40.4933 142.8133,-51.3467 50.8934,-11.0666 100.96,-24.32 149.1334,-43.1733"
           style="fill:#ffb80c;fill-opacity:1;fill-rule:nonzero;stroke:none;stroke-width:0.133333" />
        <path
           id="path214"
           d="m 4061.7453,2195.1599 c -0.013,-0.093 0,-0.1733 0,-0.2667 -0.08,0.093 -0.1466,0.1734 -0.2133,0.2534 0,0.013 0,0.013 0,0.013 0.08,0.013 0.1333,-0.013 0.2133,0"
           style="fill:#ffb80c;fill-opacity:1;fill-rule:nonzero;stroke:none;stroke-width:0.133333" />
        <path
           id="path215"
           d="m 2736.3187,2320.3066 c 0.08,0.013 0.1467,0.027 0.2267,0.04 0,-0.067 -0.013,-0.1334 -0.013,-0.2134 -0.067,0.04 -0.1333,0.027 -0.2,0.067 -0.013,0.04 -0.013,0.067 -0.013,0.1067"
           style="fill:#ffb80c;fill-opacity:1;fill-rule:nonzero;stroke:none;stroke-width:0.133333" />
        <path
           id="path216"
           d="m 2640.8254,2207.6666 c 0.053,0 0.08,0.027 0.12,0.027 0,-0.053 0,-0.12 0,-0.1866 -0.08,-0.027 -0.16,-0.04 -0.2267,-0.067 0.027,0.08 0.08,0.1467 0.1067,0.2267"
           style="fill:#ffb80c;fill-opacity:1;fill-rule:nonzero;stroke:none;stroke-width:0.133333" />
        <path
           id="path217"
           d="m 3738.492,2650.2266 c 1.1733,0.1466 2.36,0.2933 4.0667,0.5066 -2.1467,1.2134 -3.4934,1.5334 -4.0667,-0.5066 z m 55.0933,-14.44 c -10.12,-10.3467 -19.84,-21.04 -29.5733,-31.6934 -30.8667,-33.8 -69.6533,-50.3333 -118.1733,-45.9066 -6.2,0.56 -12.4134,2.3733 -17.64,0.08 -12.1867,6 -25.0667,7.72 -38.1067,12.2666 29.1733,20.8934 58.64,39.0534 90.3067,54.0534 18.9066,8.9466 38.32,17.0133 57.5066,25.4666 -2.08,0.08 -4.2266,0.3867 -6.2,0 -53.84,-10.24 -104.4133,-27.68 -149.4933,-57.1866 -5.96,-3.8934 -12.04,-7.6267 -18.0533,-11.4267 23.52,54.2533 66.4666,88.7467 127.1333,103.2667 54.6533,13.08 106.0933,4.3733 153.1733,-25.12 -21.9333,0.4933 -37.4133,-10.0267 -50.88,-23.8"
           style="fill:#ffb80c;fill-opacity:1;fill-rule:nonzero;stroke:none;stroke-width:0.133333" />
        <path
           id="path218"
           d="m 3973.1587,2536.3066 c -7.28,-4.3467 -14.1334,-9.3334 -20.9734,-14.28 -13.96,-10.12 -27.4933,-20.7734 -42.9333,-29.0534 -19.0267,-10.2133 -39.5067,-16.0666 -61.64,-15.4933 -32.16,0.84 -60.92,11.6933 -90.04,26.8 26.4133,13.56 52.6,22.5867 79.0933,30.88 26.0934,8.1733 53.2,13.0533 79.6934,19.9467 -62.9867,1.4933 -122.76,-10.88 -179.8667,-34.9467 68.2267,98.0533 217.8667,94.72 282.3467,24.2267 -17.16,4.52 -31.96,0.1333 -45.68,-8.08"
           style="fill:#ffb80c;fill-opacity:1;fill-rule:nonzero;stroke:none;stroke-width:0.133333" />
        <path
           id="path219"
           d="m 2957.612,2520.7199 c -57.2666,24.3067 -117.08,35.92 -179.9866,34.3067 54.96,-11.24 108.8533,-25.1867 159.44,-50.36 -22.2134,-14.44 -47.5067,-19.92 -72.3734,-27.08 -0.9333,0.8 -2.64,1.5733 -4.6133,1.2533 -30.1867,-4.9733 -56.6267,3.96 -81.52,18.52 -14.4,8.4267 -27.3467,18.64 -40.6,28.4533 -17.9467,13.28 -36.6667,24.32 -62.68,18.8267 79.8,77.4933 223.0267,64.8267 282.3333,-23.92"
           style="fill:#ffb80c;fill-opacity:1;fill-rule:nonzero;stroke:none;stroke-width:0.133333" />
        <path
           id="path220"
           d="m 4159.5987,2408.1999 c 0.027,-0.013 0.04,-0.013 0.067,-0.027 l 0.2267,-0.4533 -0.1867,0.3333 c -0.04,0.04 -0.08,0.093 -0.1066,0.1467"
           style="fill:#ffb80c;fill-opacity:1;fill-rule:nonzero;stroke:none;stroke-width:0.133333" />
        <path
           id="path221"
           d="m 4098.7853,2400.6799 c -13.5733,-6.8667 -27.44,-13.32 -41.48,-19.3467 -53.5333,-22.9733 -107.3066,-8.8266 -153.3333,32.0667 17.48,5.4267 35.12,8.76 52.9067,11.6933 17.92,2.96 35.9333,4.8934 54.08,6.2534 17.6666,1.3333 35.36,1.88 53.0666,2.72 -59.9066,12.88 -119.5466,10.5333 -180.52,-3.4934 73.08,72.84 212.72,67.1867 276.0934,-22.3733 -21.6134,6.6267 -41.48,2.2533 -60.8134,-7.52"
           style="fill:#ffb80c;fill-opacity:1;fill-rule:nonzero;stroke:none;stroke-width:0.133333" />
        <path
           id="path222"
           d="m 2810.6654,2430.1332 c -60.0667,16.92 -119.3867,15.8267 -178.8667,4.04 53.96,-1.1466 107.2667,-5.8533 160.8267,-21.16 -18.9867,-15.32 -37.96,-26.9733 -59.64,-34.92 -26.04,-9.5333 -52.2,-10.28 -78.8934,-2.4 -20,5.9067 -37.8546,15.8267 -56.4346,24.4 -11.2254,5.1734 -22.536,9.7334 -35.1747,11.3467 -9.5293,1.2267 -18.296,-2.16 -27.908,-3.2267 81.7333,105.24 225.7307,80.8667 276.0907,21.92"
           style="fill:#ffb80c;fill-opacity:1;fill-rule:nonzero;stroke:none;stroke-width:0.133333" />
        <path
           id="path223"
           d="m 2643.5987,2344.2932 c 15.6133,-4.7066 30.6667,-10.7866 45.72,-22.1333 -26.8133,1.56 -50.92,1.4 -74.8667,-1.5733 -31.8653,-3.96 -63.0626,-10.32 -92.4413,-22.8134 -1.4427,-0.08 -2.812,-0.3066 -3.68,-1.5733 1.7493,-1.1733 3.3987,-0.9733 4.9853,0.2667 3.7534,0.3733 7.5347,0.5866 11.2534,1.1466 26.2026,3.9734 52.5413,6.76 79.0986,7.48 19.5707,0.5334 39.1174,0.24 59.9574,-2.3333 -6.0934,-9.2933 -13.84,-15.8533 -21.1867,-22.5867 -33.4613,-30.6133 -72.4373,-44.4 -119.9307,-33.3733 -17.2626,4.0133 -34.0226,9.5333 -51.3546,13.24 -15.916,3.4 -31.536,3.8267 -46.3707,-3.8267 -1.0173,-0.7066 -2.016,-1.76 -3.0493,-0.3333 -0.2427,1.2667 0.456,1.84 1.3786,2.2667 4.356,13.2266 13.1494,24.1866 22.2827,34.7333 44.0067,50.8133 120.616,71.7333 188.204,51.4133"
           style="fill:#ffb80c;fill-opacity:1;fill-rule:nonzero;stroke:none;stroke-width:0.133333" />
        <path
           id="path224"
           d="m 3573.7187,2432.0266 c -2.64,4.2 -5.24,8.44 -7.9467,12.6133 -20.5467,31.7333 -37.6933,64.88 -49.3867,100.28 -0.72,2.1867 -2.48,4.4933 0.6,6.88 18.3334,-5.0667 36.1867,-11.68 52.4667,-21.36 25.2133,-15.0133 42,-35.5067 48.72,-62.8267 3.52,-14.3333 4.7867,-28.8133 6.2,-43.3333 2.0267,-20.8133 3.8533,-41.6267 26.0933,-55.8933 -113.2933,0.2666 -187.6133,102.36 -160.8133,188.5866 7.9867,-22.68 18.0933,-43.5733 30.4267,-63.4666 14.2533,-23 30.68,-44.56 51.7066,-62.8934 0.24,-1.12 0.84,-1.9466 2.12,-2.24 0.5734,-0.6133 1.16,-1.24 1.7467,-1.88 1.6667,1.36 0.56,2.32 -0.1333,3.3067 -0.6,0.7467 -1.2,1.48 -1.8,2.2267"
           style="fill:#ffb80c;fill-opacity:1;fill-rule:nonzero;stroke:none;stroke-width:0.133333" />
        <path
           id="path225"
           d="m 3206.1454,2557.2399 c 27.44,-101.88 -66.92,-193.4 -160.4934,-187.6667 16.44,9.9734 21.1867,24.68 23.6667,40.5067 2.6533,16.84 3.16,33.8533 6.1867,50.6933 8.4933,47.1467 48.48,78.3734 105.4266,90.44 -13.4,-43.8266 -35.3733,-83.4933 -60.08,-122.1466 40.0534,35.4266 66.4934,78.6266 85.2934,128.1733"
           style="fill:#ffb80c;fill-opacity:1;fill-rule:nonzero;stroke:none;stroke-width:0.133333" />
        <path
           id="path226"
           d="m 2590.588,2200.5332 c -14.4973,-2.64 -28.2373,-4.3066 -41.6146,-7.56 -13.5374,-3.2933 -27.056,-6.6 -40.1014,-11.3466 -13.384,-4.8667 -26.7773,-9.7467 -39.3826,-16.1467 -11.7547,-5.9733 -23.8574,-11.52 -34.0374,-19.8533 47.1667,16.28 94.8987,29.9066 146.76,33.48 -5.4546,-11.6267 -12.0973,-20.84 -19.136,-29.7867 -18.1133,-23.0267 -41.1106,-39.76 -72.204,-45.3733 -20.72,-3.7333 -41.4653,-1.3333 -62.224,0.4267 -23.128,1.9733 -46.764,5.4799 -66.3293,-13.1734 20.4067,102.1333 144.8773,148.6 228.2693,109.3333"
           style="fill:#ffb80c;fill-opacity:1;fill-rule:nonzero;stroke:none;stroke-width:0.133333" />
        <path
           id="path227"
           d="m 4281.3453,2105.4666 c -14.36,-0.84 -28.6933,-2.1333 -43.04,-3.1733 -55.4133,-4.0534 -98.3466,23.5199 -124.2666,76.6133 49.6666,-2.88 95.92,-16.6134 142.2,-31.32 -45.4267,29.4533 -96.64,45.6666 -151.3467,53.68 109.2667,42.2266 215.08,-28.2 227.4933,-110.0133 -14.5866,14.9866 -32.6666,15.2933 -51.04,14.2133"
           style="fill:#ffb80c;fill-opacity:1;fill-rule:nonzero;stroke:none;stroke-width:0.133333" />
        <path
           id="path228"
           d="m 3028.5587,2372.4266 c -22.64,-36.76 -73.5467,-69.9467 -106.84,-69.6 11.4267,10.96 15.0533,24.1066 14.1733,38.4933 -0.52,8.32 -1.52,16.6 -2.4266,24.8933 -2.3867,21.84 -4.7867,43.8134 3.7333,64.96 13.0133,32.28 40.1067,52.1067 72.6533,66.7067 0.4134,0.1867 1.2267,-0.4133 2.3467,-0.8267 0.08,-14.52 -3.72,-28.7066 -6.48,-43.04 -2.7867,-14.3733 -6.84,-28.44 -11.5733,-42.3333 -4.5734,-13.44 -9.72,-26.72 -14.6134,-40.0667 31.28,40.7867 48.8134,86.0934 56.6134,135.1067 21.8266,-45.8667 19.24,-90.7067 -7.5867,-134.2933"
           style="fill:#ffb80c;fill-opacity:1;fill-rule:nonzero;stroke:none;stroke-width:0.133333" />
        <path
           id="path229"
           d="m 3771.852,2301.8932 c -113.9733,22.9467 -152.3333,139.3867 -112,205.04 8.56,-57.6266 35.7067,-117.6 54.6,-132.4 -7.3867,21.52 -15.2267,41.36 -20.6533,61.84 -5.44,20.5734 -9.76,41.28 -11.3067,63.6 11.1067,-4.64 19.6267,-9.8133 27.9333,-15.16 35.0534,-22.56 55.6,-52.12 53.6267,-92.9066 -0.7067,-14.6134 -2.88,-29.0534 -4.2133,-43.5867 -1.52,-16.4267 0.1866,-31.8933 12.7333,-44.8933 0.64,-0.6667 0.1867,-1.36 -0.72,-1.5334"
           style="fill:#ffb80c;fill-opacity:1;fill-rule:nonzero;stroke:none;stroke-width:0.133333" />
        <path
           id="path230"
           d="m 2398.7587,2052.3599 c 39.3067,22.4267 81.6507,28.1467 126.4173,16.92 -19.0853,-6.0133 -37.9333,-12.16 -55.9266,-20.36 -26.54,-12.0933 -51.8254,-25.92 -73.736,-44.4533 -1.572,-0.7067 -3.1427,-1.4133 -5.4147,-2.4267 3.32,-0.9733 5.664,-1.9466 7.612,0.4534 1.408,0.4666 2.9053,0.7866 4.2053,1.4266 33.704,16.7734 68.5187,31.1067 105.58,40.5067 3.8654,0.9867 7.5947,3.4 12.5707,1.2933 -2.644,-11.24 -8.464,-21.2933 -14.18,-31.28 -15.5147,-27.08 -38.208,-46.44 -71.3827,-53.96 -16.6626,-3.7733 -33.7773,-4 -50.7786,-4.8133 -21.644,-1.0267 -43.216,-1.8667 -58.804,-20.2 -0.5654,41.72 26.352,89.8 73.8373,116.8933"
           style="fill:#ffb80c;fill-opacity:1;fill-rule:nonzero;stroke:none;stroke-width:0.133333" />
        <path
           id="path231"
           d="m 4285.7053,1957.6399 c -33.1866,0.9067 -61.0666,12.2667 -81.8666,36.6 -12.9734,15.1734 -20.7867,32.8134 -28.2,50.6134 -0.1467,0.3333 0.7333,1.0266 1.5733,2.12 15.1867,-4.2934 30.9067,-7.92 45.96,-13.1734 27.1333,-9.4666 53.0933,-21.3733 78.4533,-34.3466 0.84,-0.6267 1.6134,-1.36 2.5467,-1.8534 0.5733,-0.2933 1.3733,-0.2 2.2133,-0.2933 1.44,2.72 -0.5866,3.4933 -2.7733,4.1733 -10.3867,12.2667 -25.36,19.5067 -38.9067,27.8 -22.5733,13.8267 -46.6666,25.5867 -73.0666,32.7467 -6.9067,1.8667 -14.1867,3.4133 -21.1734,7.24 92.7467,25.96 200.6267,-43.4667 199.76,-133.2267 -15.0133,13.4934 -20.5866,16.2534 -41.4666,18.5067 -14.2934,1.5333 -28.6267,2.6933 -43.0534,3.0933"
           style="fill:#ffb80c;fill-opacity:1;fill-rule:nonzero;stroke:none;stroke-width:0.133333" />
        <path
           id="path232"
           d="m 3829.9853,2421.1599 c 16.4667,-10.72 28.8534,-23.2667 39.64,-37.1067 12.92,-16.56 19.4534,-35.1333 19.0534,-55.6533 -0.3334,-17.6 -6,-34.16 -11.6,-50.76 -6.56,-19.4267 -14.2,-38.84 -1.8,-59.1867 -49.56,20.1334 -79.9334,54.1867 -91.48,101.9734 -9.8267,40.6533 -0.5867,77.92 25.3466,111.7866 -1.7466,-24.8266 0.16,-49.36 4.56,-73.6533 3.96,-21.84 9.3467,-43.44 19.92,-63.6133 -0.013,-1.28 0.1334,-2.5334 1.3334,-3.5067 2.2533,1.5067 1.0533,3.12 0.2133,4.7333 -6.6533,41.0934 -11.5867,82.24 -5.1867,124.9867"
           style="fill:#ffb80c;fill-opacity:1;fill-rule:nonzero;stroke:none;stroke-width:0.133333" />
        <path
           id="path233"
           d="m 2900.932,2290.9599 c -16.28,-34.6533 -43.9866,-59.3867 -82.9466,-72.64 10.88,11.5467 9.9466,24.8267 6.7466,37.84 -3.32,13.5067 -8.28,26.6667 -12.56,39.9733 -11.7066,36.4134 -5.2,69.44 22.28,98.2667 8.9867,9.44 17.88,19.2267 31.3067,25.9733 1.7067,-15.1466 2.4667,-28.9333 2.5333,-42.7733 0.053,-13.5867 -0.9333,-27.12 -2.36,-40.6133 -1.3866,-13.1067 -3.76,-26.1467 -5.7066,-39.2134 1,-0.093 2.0133,-0.2 3.0133,-0.3066 18.68,43.0266 25.3867,87.8133 23.28,134.2533 33.0133,-44.4 37.4267,-91.76 14.4133,-140.76"
           style="fill:#ffb80c;fill-opacity:1;fill-rule:nonzero;stroke:none;stroke-width:0.133333" />
        <path
           id="path234"
           d="m 2486.46,1933.5999 c -25.1986,-11 -48.3786,-23.3333 -69.2853,-38.9733 -14.94,-11.1733 -30.1107,-22.12 -41.364,-36.7867 -1.3613,-0.3733 -2.8413,-0.6133 -3.1467,-2.2666 1.7,-1.1867 3.4107,-0.8534 5.1254,0 4.096,2.48 8.36,4.7333 12.2533,7.4533 20.5627,14.32 42.5147,26.6267 65.4067,37.4933 9.4133,4.4667 18.8666,9.0934 30.388,12.56 -1.84,-7.8533 -2.9227,-14 -4.7427,-19.96 -7.708,-25.2266 -19.4093,-48.2666 -43.624,-64.0533 -17.7173,-11.5333 -38.2333,-16.1867 -59.1093,-20.1733 -23.504,-4.48 -48.8227,-5.9467 -62.568,-29.9334 -10.936,106.2934 96.6333,169.2134 170.6666,154.64"
           style="fill:#ffb80c;fill-opacity:1;fill-rule:nonzero;stroke:none;stroke-width:0.133333" />
        <path
           id="path235"
           d="m 4297.6653,1812.9066 c -49.9733,11.0933 -86.7333,53.4533 -86.64,99.8933 4.64,-1.84 9.1867,-3.5333 13.6267,-5.4133 30.0533,-12.7067 57.8933,-28.7867 84.44,-46.8133 2.8267,-1.92 5.3067,-5.32 10.8933,-2.1067 -31.16,32.2667 -68.0666,56.7333 -109.84,75.5733 100.68,11.96 182.6,-73.0666 168.28,-153.4666 -8.7733,14.8933 -23.44,20.72 -39.7466,24.1066 -13.6534,2.8267 -27.4134,5.2134 -41.0134,8.2267"
           style="fill:#ffb80c;fill-opacity:1;fill-rule:nonzero;stroke:none;stroke-width:0.133333" />
        <path
           id="path236"
           d="m 3953.052,2322.4132 c 6.7333,-4.36 10.2267,-10.6666 14.5467,-16.1866 28.3733,-36.2134 33.9466,-74.12 9.5866,-114.1334 -5.16,-8.48 -9.9866,-17.1333 -14.8133,-25.7866 -4.3333,-7.7467 -7.44,-15.8534 -8.9467,-24.52 -1.16,-6.6934 2.6134,-12.8667 2.4934,-19.8934 -82.5867,49.7067 -87.3334,160.2 -19.08,215.5467 -12.8667,-46.4667 -15.76,-91.8267 -4.32,-137.3733 1.8533,41.3866 6.28,82.32 20.5333,122.3466"
           style="fill:#ffb80c;fill-opacity:1;fill-rule:nonzero;stroke:none;stroke-width:0.133333" />
        <path
           id="path237"
           d="m 2736.532,2320.1332 c 2.2667,-0.8133 3.5734,2.4 6.4667,0.9867 13.76,-40.4 18.36,-82.4267 19.48,-124.96 11.8,46.9333 9.5067,93.56 -3.9467,140.9733 66.7067,-51.1733 64.28,-168.0266 -20.4933,-215.5333 8.2667,17.6 1.04,32.36 -6.0533,47.4933 -4.7467,10.12 -12.08,18.76 -17.0534,28.72 -10.04,20.08 -15.4266,40.64 -10.2666,62.6667 3.4666,14.76 10.4266,28.1733 19.24,40.88 2.2666,3.28 6.3866,5.92 5.84,10.56 4.5066,1.2 6.88,3.8667 6.7866,8.2133"
           style="fill:#ffb80c;fill-opacity:1;fill-rule:nonzero;stroke:none;stroke-width:0.133333" />
        <path
           id="path238"
           d="m 2729.7454,2311.9199 c -0.053,-0.013 -0.093,-0.027 -0.1467,-0.04 -0.027,0.12 -0.027,0.2133 -0.053,0.3333 0.067,-0.053 0.1333,-0.08 0.2,-0.1333 0.013,-0.053 0,-0.1067 0,-0.16"
           style="fill:#ffb80c;fill-opacity:1;fill-rule:nonzero;stroke:none;stroke-width:0.133333" />
        <path
           id="path239"
           d="m 2472.2014,1799.1999 c -15.1094,-9.1066 -29.188,-19.0666 -42.128,-30.32 -19.8147,-17.2266 -38.3774,-35.4266 -51.7334,-57.5466 -1.9266,-1.9467 -3.852,-3.8934 -6.0906,-6.16 4.9226,-1.2667 6.2706,1.92 8.2066,4.2 28.6467,25.9333 57.9187,51.1466 93.7934,69.2133 1.5613,-9.68 -0.5094,-18.92 -2.1054,-28.1067 -6.1333,-35.2666 -24.712,-62.24 -61.8693,-76.4133 -11.5173,-4.4 -23.152,-8.5333 -34.8373,-12.5333 -17.3174,-5.9334 -33.4814,-13.0534 -40.3507,-31.6934 -27.576,94.64 60.1533,173.7334 137.1147,169.36"
           style="fill:#ffb80c;fill-opacity:1;fill-rule:nonzero;stroke:none;stroke-width:0.133333" />
        <path
           id="path240"
           d="m 4282.4653,1674.9999 c -42.3333,17.2667 -63.4666,56.6134 -60.5733,103.2267 12,-5.0267 21.9467,-12.4267 32.2667,-19.2533 22.2,-14.6934 41.1066,-32.76 61.0266,-49.8 0.6,-1.1867 1.32,-2.2134 3.0667,-1.9867 1.08,1.6133 0.8267,2.9867 -0.9867,4.04 -18.1066,28.6667 -42.8533,51.8933 -70.8533,72.4133 -7.4,5.4134 -15.04,10.5334 -24.08,16.8534 101.1867,-3.68 163.0933,-95.16 138.0533,-169 -11.4933,17.76 -15.2266,20.6133 -37.7866,29.0266 -13.32,4.96 -26.96,9.1067 -40.1334,14.48"
           style="fill:#ffb80c;fill-opacity:1;fill-rule:nonzero;stroke:none;stroke-width:0.133333" />
        <path
           id="path241"
           d="m 2636.4387,2201.1599 c -0.1067,0.027 -0.1733,0.027 -0.2933,0.067 0.013,0.053 0.04,0.1066 0.053,0.16 0.053,0.013 0.08,0.053 0.1467,0.067 0.04,-0.1066 0.053,-0.1866 0.093,-0.2933"
           style="fill:#ffb80c;fill-opacity:1;fill-rule:nonzero;stroke:none;stroke-width:0.133333" />
        <path
           id="path242"
           d="m 2638.6654,2203.3199 c -0.053,-0.013 -0.093,-0.04 -0.16,-0.067 -0.053,0.093 -0.08,0.1867 -0.12,0.2667 0.093,-0.013 0.2133,-0.027 0.32,-0.04 -0.013,-0.04 -0.027,-0.1067 -0.04,-0.16"
           style="fill:#ffb80c;fill-opacity:1;fill-rule:nonzero;stroke:none;stroke-width:0.133333" />
        <path
           id="path243"
           d="m 2638.6654,2203.3199 c 2.1866,0.7333 2.1733,2.4933 2.28,4.1867 1,0.3066 2.04,0.6133 3.5866,1.08 10.5067,-17.12 18.4667,-35.36 25.6934,-53.9067 7.2133,-18.5067 11.6266,-37.7467 18.0266,-56.48 1.5067,44.92 -10.76,86.9867 -32.0133,128.28 79.3733,-42.3733 91.64,-152.56 24.4,-207.6533 3.8667,15.0533 -2.2267,27.08 -11.52,38.12 -6.9333,8.24 -14.3733,16.12 -21.2267,24.4267 -12.1333,14.72 -22.9426,29.9066 -25.9293,48.9599 -3.424,21.8267 2.1573,41.9067 11.2893,61.6667 1.3467,2.9067 4.72,5.4 3.1867,9.16 2.0933,-0.5733 1.9867,0.96 2.2267,2.16"
           style="fill:#ffb80c;fill-opacity:1;fill-rule:nonzero;stroke:none;stroke-width:0.133333" />
        <path
           id="path244"
           d="m 4052.5587,2209.5199 c -0.027,0.08 -0.08,0.16 -0.1067,0.24 0.067,-0.04 0.1333,-0.093 0.2133,-0.1467 0,-0.013 0.013,-0.013 0.013,-0.027 -0.04,-0.027 -0.08,-0.053 -0.12,-0.067"
           style="fill:#ffb80c;fill-opacity:1;fill-rule:nonzero;stroke:none;stroke-width:0.133333" />
        <path
           id="path245"
           d="m 4005.972,2103.0399 c -0.04,-1.2666 -0.1733,-2.68 2.12,-3.76 3.32,11.3867 6.6133,22.68 9.9067,33.96 6.9866,23.9067 16.9333,46.7733 28.8933,68.92 1.44,2.6533 2.3333,5.8533 5.6667,7.36 1.92,-5.36 5.1866,-10 8.9733,-14.3733 -0.24,-2.56 1.3067,-4.6 2.2267,-6.8667 8.9866,-22.08 14.9733,-44.3867 7.2266,-68.0267 -5.8133,-17.7466 -17.4666,-32.1066 -29.9733,-46.1866 -14.0933,-15.8533 -30.88,-30.7067 -26.92,-54.9333 -3.28,2.6266 -5.4133,4.0266 -7.1333,5.7733 -50.1867,50.9867 -47.7734,134.4533 5.4533,182.8266 7.8,7.08 15.2667,14.8667 26.2,18.28 -11.2533,-22.6133 -20.6933,-45.76 -26.08,-70.2133 -3.8533,-17.4267 -5.9733,-35.0133 -6.56,-52.76"
           style="fill:#ffb80c;fill-opacity:1;fill-rule:nonzero;stroke:none;stroke-width:0.133333" />
        <path
           id="path246"
           d="m 4038.612,2226.0132 c 0.067,0.1334 0.1333,0.2667 0.2,0.4 0.12,-0.027 0.2,-0.08 0.3067,-0.1066 -0.013,-0.04 -0.013,-0.08 -0.04,-0.12 -0.16,-0.053 -0.2934,-0.12 -0.4667,-0.1734"
           style="fill:#ffb80c;fill-opacity:1;fill-rule:nonzero;stroke:none;stroke-width:0.133333" />
        <path
           id="path247"
           d="m 4209.3187,1598.4133 c -3.8267,16.8666 -3.2267,33.72 -0.64,52.0266 17.6666,-12.3066 31.4266,-26.1333 45,-40.12 13.4,-13.8 25.0666,-28.8933 37.8933,-43.2666 -7.4,19.8266 -18.4533,37.7066 -31.4933,54.6933 -13.1467,17.1333 -28.7867,32.2667 -46.5067,47.9733 90.92,-13.56 141.7067,-108.8133 103.7733,-179.2666 -2.7066,13.6533 -11.48,22.8133 -23.72,29.48 -13.36,7.2666 -26.92,14.2266 -40.1733,21.64 -23.48,13.16 -38.48,31.92 -44.1333,56.84"
           style="fill:#ffb80c;fill-opacity:1;fill-rule:nonzero;stroke:none;stroke-width:0.133333" />
        <path
           id="path248"
           d="m 2480.6774,1668.5066 c -32.7654,-27.52 -58.6667,-59.16 -75.6827,-96.6 -0.732,-1.4533 -1.4653,-2.92 -2.2,-4.3733 -0.588,-2.04 -3.424,-3.3867 -2.2267,-6.2267 2.368,1.0933 3.28,2.9733 3.936,5.0267 1.8414,0.7866 2.1827,2.4 2.5907,3.9733 3.2613,2 4.9213,5.2267 7.1173,8 17.1587,21.72 35.7667,42.2667 57.2987,60.4667 4.552,3.8533 9.3613,7.4533 14.0533,11.16 0.9707,-0.36 1.9387,-0.72 2.9094,-1.0667 0,-9.6267 0.044,-19.2533 -0.01,-28.88 -0.1854,-34.2933 -15.464,-61.0133 -47.6867,-78.9867 -12.2813,-6.8666 -24.9373,-13.16 -37.3067,-19.88 -12.6986,-6.92 -22.5293,-16.0266 -25.384,-30.5066 -18.7026,30.5066 -17.3933,82.8666 10.192,122.4933 21.696,31.1733 66.8574,56.48 92.3974,55.4"
           style="fill:#ffb80c;fill-opacity:1;fill-rule:nonzero;stroke:none;stroke-width:0.133333" />
        <path
           id="path249"
           d="m 4062.7853,1987.5866 c 15,34.08 32.16,67.0933 57.3867,97.04 5.04,-10.04 7.8,-19.7333 10.0267,-29.5467 7.88,-34.7466 -1.6267,-64.6266 -30.08,-89.0933 -9.12,-7.84 -18.52,-15.4133 -27.4267,-23.44 -10.4667,-9.44 -18.5067,-20.1333 -18.6533,-34.6133 -30.4534,39.24 -35.3334,81.4266 -16.8534,125.9466 12.8934,31.04 50.8,65.3334 72.4,66.4267 -24.56,-34.1333 -42.7733,-70.4133 -48.8266,-111.1467 -1.3867,-2.0533 -2.1334,-4.1466 -0.6667,-6.52 2.16,1.1334 1.8133,3.32 2.6933,4.9467"
           style="fill:#ffb80c;fill-opacity:1;fill-rule:nonzero;stroke:none;stroke-width:0.133333" />
        <path
           id="path250"
           d="m 2634.9987,1982.5733 c 1.7733,1.5333 0.8667,2.5333 0.027,3.5466 -1.4,-0.96 -1.32,-2.0533 -0.027,-3.5466 z m 5.5733,-74.72 c 0.84,12.8933 -5.24,22.7066 -14.3013,31.0533 -9.8853,9.0933 -20.1293,17.88 -30.4307,26.5867 -36.0373,30.4533 -43.196,71.5733 -20.0026,118.56 24.54,-29.32 41.4253,-62.1734 57.8013,-95.36 -5.528,41.44 -23.5373,78.28 -49.2227,113.4533 83.956,-30.5067 109.956,-134.64 56.156,-194.2933"
           style="fill:#ffb80c;fill-opacity:1;fill-rule:nonzero;stroke:none;stroke-width:0.133333" />
        <path
           id="path251"
           d="m 4169.0787,1496.9199 c 1.2266,10.2667 1.88,21.0267 8.2266,31.24 3.8667,-4.12 7.1467,-7.44 10.2134,-10.9066 19.9066,-22.52 35.4933,-47.5334 50.2,-73.0667 0.32,-2.0533 1.2666,-3.76 3.2266,-5.2133 2.1334,2.8933 0.4134,5.1866 -0.5866,7.52 -9.8534,36.8 -30.0267,68.84 -56.12,99.4533 81.2933,-22.7867 118.4533,-119.8667 69.28,-183.7733 1.2933,11.8533 -4.2134,20.4133 -12.1467,27.2533 -9.7867,8.4667 -20.44,16.0667 -31.2533,23.52 -30.3734,20.96 -45.2267,48.84 -41.04,83.9733"
           style="fill:#ffb80c;fill-opacity:1;fill-rule:nonzero;stroke:none;stroke-width:0.133333" />
        <path
           id="path252"
           d="m 2510.644,1545.3466 c -27.716,-31.9467 -47.2773,-66.6267 -56.9,-105.8667 18.8707,31.4267 38.084,62.52 65.284,89.36 4.0814,-11.4133 6.1307,-22.32 7.3254,-33.2933 2.76,-25.3867 -3.896,-48.32 -22.9987,-67.44 -8.9747,-8.9867 -19.4747,-16.4667 -30.0933,-23.76 -15.4307,-10.6 -30.832,-21.1867 -32.6374,-42 -51.1906,75.52 0.2534,166.68 70.02,183"
           style="fill:#ffb80c;fill-opacity:1;fill-rule:nonzero;stroke:none;stroke-width:0.133333" />
        <path
           id="path253"
           d="m 2565.248,1943.0666 c -7.8266,10.48 -17.2493,19.84 -27.1453,30.3733 79.488,-16.5466 126.6693,-105.9066 84.8667,-177.3466 -6.2667,17.5866 -10.2267,22.52 -26.8734,33.2266 -6.5106,4.1867 -13.336,7.96 -19.9693,11.9867 -22.0573,13.4 -40.104,29.7067 -46.2053,54.4667 -4.8894,19.8266 -3.4894,39.4266 2.044,60 28.0426,-24.8667 49.1813,-52.7467 69.452,-81.4934 -2.068,13.0667 -8.1267,24.5067 -14.3334,35.9067 -6.2733,11.52 -13.916,22.2933 -21.836,32.88"
           style="fill:#ffb80c;fill-opacity:1;fill-rule:nonzero;stroke:none;stroke-width:0.133333" />
        <path
           id="path254"
           d="m 4094.3853,1872.9599 c 20.04,29.32 40.52,58.32 69.3867,82.92 5.5333,-22.8 7.2933,-44.32 -0.08,-65.8133 -7.7067,-22.4667 -25.28,-37.3333 -46,-49.72 -6.84,-4.0933 -14.04,-7.7733 -20.4533,-12.36 -11.4667,-8.2267 -22.68,-16.8533 -23.7467,-33.9067 -42.9867,73.5734 4.3733,162.5734 81.6267,179.0267 0.04,-0.3067 0.2533,-0.7333 0.12,-0.8933 -4.2534,-4.8134 -8.5867,-9.5734 -12.8,-14.4134 -21.8667,-25.1333 -39.8267,-52.24 -49.9734,-83.28 -1,-1.3066 -2.0133,-2.6 -3.12,-4.0266 3.8134,-2.1067 4.3467,0.3066 5.04,2.4666"
           style="fill:#ffb80c;fill-opacity:1;fill-rule:nonzero;stroke:none;stroke-width:0.133333" />
        <path
           id="path255"
           d="m 2591.464,1761.4933 c -6.9053,14.8266 -17.3266,27.5866 -28.2173,40.0266 -13.704,15.6667 -29.2093,29.7334 -47.5333,42.6667 82.9346,-4.88 138.312,-90.48 108.18,-157.4667 -5.28,13.24 -9.9934,18.5734 -24.3614,25.5334 -11.0386,5.3466 -22.472,10 -33.7173,14.9733 -28.988,12.84 -46.8173,33.5467 -51.896,62.8533 -2.028,11.7067 -2.8627,23.5734 -1.4027,37.2267 8.0494,-5.8133 14.312,-10.2533 20.4734,-14.8133 21.0346,-15.56 38.3733,-34.4534 56.5026,-52.64 0.6294,-1.5067 1.212,-3.0667 3.2867,-3.4 0.4973,-0.6934 0.9933,-1.3867 1.5227,-2.12 1.7946,1.4266 0.5773,2.3466 -0.188,3.3066 -0.416,1.56 -0.944,3.0534 -2.6494,3.8534"
           style="fill:#ffb80c;fill-opacity:1;fill-rule:nonzero;stroke:none;stroke-width:0.133333" />
        <path
           id="path256"
           d="m 4104.0787,1757.6933 c 23.56,25 47.5866,49.5333 79.3333,69.3733 0.6933,-28.8267 -1.4667,-54.7467 -20.8533,-76.7067 -12.2934,-13.92 -29.1734,-21.7466 -46.4134,-29.1066 -18.2266,-7.7867 -37.96,-13.9467 -45.3333,-35.2667 -30.12,84.8 41.4133,155.6133 106.2933,157.8933 -0.2266,-0.6 -0.28,-1.3866 -0.7333,-1.7466 -3.68,-2.9867 -7.52,-5.8267 -11.1733,-8.84 -25.7734,-21.3067 -47.9067,-45.2267 -62.8667,-74.24 -1.88,-0.8134 -2.12,-2.2667 -2.4,-3.9067 3.0933,-0.7067 3.1467,1.4667 4.1467,2.5467"
           style="fill:#ffb80c;fill-opacity:1;fill-rule:nonzero;stroke:none;stroke-width:0.133333" />
        <path
           id="path257"
           d="m 4174.252,1318.9599 c 1.48,1.9067 1.72,3.7067 -0.2267,5.4667 -2.3333,-1.92 -0.5733,-3.6533 0.2267,-5.4667 z m -48.08,97.3067 c 7.7467,-10.0133 13.5733,-19.76 18.88,-29.72 5.3067,-9.96 10.04,-20.2 14.6267,-30.4667 4.36,-9.7333 8.1866,-19.6666 12.2533,-29.52 0.8933,0.32 1.7867,0.6534 2.68,0.9734 -4.56,36.6 -17.3867,70.7866 -38.68,103.92 70.8667,-29.9734 94.72,-125.2667 37.2533,-183.84 3.24,15.88 -4.3866,26.1866 -13.48,35.72 -8.2266,8.6266 -17.28,16.5866 -25.6266,25.12 -14.3734,14.7066 -22.8667,31.7066 -23.1867,51.7866 -0.3067,19.7067 5.0667,38 15.28,56.0267"
           style="fill:#ffb80c;fill-opacity:1;fill-rule:nonzero;stroke:none;stroke-width:0.133333" />
        <path
           id="path258"
           d="m 2555.428,1430.1866 c 1.016,0.84 2.1067,1.3467 3.4614,0.68 -0.24,-1.0533 -0.8534,-1.8133 -2.0414,-2.1333 -0.2866,-1 -0.344,-2.12 -0.892,-2.9734 -16.2333,-25.44 -26.732,-52.88 -32.696,-81.6933 -1.664,-8.04 -4.2933,-16.3333 -2.3,-27.1733 11.8654,36.2 26.2187,68.8533 48.168,99.2266 5.2054,-7.88 7.7574,-15.8 10.376,-23.7066 10.932,-33 4.7454,-62.4267 -21.6386,-87.6934 -7.0774,-6.7733 -14.0374,-13.6533 -21.088,-20.4666 -10.0614,-9.72 -17.4427,-20.48 -15.3534,-34.68 -2.588,0.1733 -3.3533,1.4 -4.2653,2.48 -19.536,23.1866 -29.0853,49.4266 -27.4,78.6933 2.5173,43.76 23.7413,77.4133 65.6693,99.44"
           style="fill:#ffb80c;fill-opacity:1;fill-rule:nonzero;stroke:none;stroke-width:0.133333" />
        <path
           id="path259"
           d="m 2599.1814,1647.5199 c 0.7426,-0.56 1.4853,-1.12 2.1906,-1.6666 2.0107,1.3733 0.62,2.3333 -0.064,3.3333 -0.8346,1.0133 -1.604,2.1867 -3.3866,1.1867 -1.316,-1.5467 0.2826,-2.0934 1.26,-2.8534 z m -83.7454,71.0534 c 80.152,3.0666 143.9894,-64.48 128.696,-137.7867 -7.2266,15.9067 -20.3626,21.1467 -34.3373,25.04 -12.6667,3.5333 -25.5507,6.3733 -37.8547,10.9867 -18.168,6.8266 -32.4906,17.5466 -41.7693,33.6266 -8.9093,15.44 -13.3,31.8934 -14.62,49.9334 6.7507,-2.0534 11.484,-4.8934 16.3773,-7.44 20.1574,-10.5334 38.0587,-23.9334 56.3107,-36.9067 2.144,-1.52 3.9213,-4.7733 8.3,-1.0533 -21.4227,26.2266 -49.18,45.8133 -81.1027,63.6"
           style="fill:#ffb80c;fill-opacity:1;fill-rule:nonzero;stroke:none;stroke-width:0.133333" />
        <path
           id="path260"
           d="m 4091.612,1645.2799 c 4.12,0.5334 5.6533,2.28 6.84,4.8267 -5.16,1.12 -5.6533,-1.5733 -6.84,-4.8267 z m -3.5867,-2.4266 c 0.92,-1.6667 2.2134,-0.3334 3.92,1.1866 -2.6933,0.32 -4.44,-0.2533 -3.92,-1.1866 z m 92.28,57.7733 c -1.04,-6.3867 -1.6933,-11.16 -2.6,-15.9067 -6.6,-34.8 -25.2933,-60.4933 -63.9466,-71.1066 -10.8667,-2.9867 -21.68,-6.1067 -32.52,-9.16 -12.76,-3.5867 -23.32,-9.7467 -30.0934,-22.8134 -15.7866,75.5334 53.7734,141.8267 128.0667,136.4134 -15.96,-9.04 -30.8933,-17.68 -44.1733,-28.3467 -13.2134,-10.6267 -26.6534,-21.16 -34.4934,-36.2533 13.5734,7.6666 25.8134,16.68 38.5734,25.04 12.6,8.2533 25.4933,16.2133 41.1866,22.1333"
           style="fill:#ffb80c;fill-opacity:1;fill-rule:nonzero;stroke:none;stroke-width:0.133333" />
        <path
           id="path261"
           d="m 4074.612,1281.9733 c 3.72,-10.92 6.7333,-22.0534 9.5333,-33.2 2.68,-10.6 4.68,-21.3467 6.9867,-32.0267 2.84,37.96 1.0133,48.1867 -18.0667,110.8133 66.3067,-42.0666 64.9734,-135.92 7.7067,-176.6266 2.12,15.3733 0.2667,21.2533 -11.7467,37.6533 -7.3866,10.0933 -15.68,19.6 -22.2133,30.2533 -17.8533,29.08 -11.0533,66.2534 14.0667,95.1334 5.5466,-10.4267 10.0133,-21.12 13.7333,-32"
           style="fill:#ffb80c;fill-opacity:1;fill-rule:nonzero;stroke:none;stroke-width:0.133333" />
        <path
           id="path262"
           d="m 2623.4094,1328.1999 c -15.7534,-35.72 -22.816,-71.5866 -19.48,-109.0133 6.9893,32.4667 14.9373,64.6 31.2293,95.7733 5.9467,-7.6533 9.9733,-14.6666 13.5867,-21.8933 15.2533,-30.3867 12.8533,-59.3067 -8.6534,-86.6133 -3.1066,-3.9334 -6.04,-8 -9.2986,-11.8267 -10.8627,-12.7467 -18.812,-26.4267 -17.5174,-43.2533 -60.156,46.76 -52.4346,138.4133 10.1334,176.8266"
           style="fill:#ffb80c;fill-opacity:1;fill-rule:nonzero;stroke:none;stroke-width:0.133333" />
        <path
           id="path263"
           d="m 4063.8253,1539.7199 c -1.4,-0.027 -2.8533,0.067 -3.8133,-1.24 1.72,-1.3333 3.28,-0.9733 4.7867,0.3334 1.5466,0.64 3.5733,0.8 3.68,3.04 -2.8934,1.6133 -3.8534,-0.12 -4.6534,-2.1334 z m 76.16,2.28 c -10.1066,-15.5733 -24.6933,-26.0666 -43.4533,-31.6266 -10.8267,-3.2 -22.0267,-4.64 -33.2933,-5.96 -17.44,-2.0267 -35.4267,-3.0934 -47.44,-19.2134 -2.6934,83.8667 88.2933,127.36 140.4533,111.4 -57.6667,-26.88 -82.16,-42.0666 -87.5467,-55.6266 27.9867,16.4 55.68,30.2 87.8534,39.6933 -3.8267,-14.5733 -9.0267,-27.04 -16.5734,-38.6667"
           style="fill:#ffb80c;fill-opacity:1;fill-rule:nonzero;stroke:none;stroke-width:0.133333" />
        <path
           id="path264"
           d="m 2678.5054,1485.5599 c -6.8,10.08 -16.56,14.2134 -27.5067,16.24 -5.92,1.0934 -11.9733,1.5467 -17.96,2.36 -13.4667,1.8267 -27.036,3.28 -39.8253,7.9334 -27.3947,9.96 -41.1067,30.56 -50.1147,54.6533 -1.5893,4.2533 -4.276,8.56 -2.6147,13.8667 5.4454,-1.8934 10.388,-3.6267 15.34,-5.3334 26.6974,-9.2266 50.7254,-23.08 75.0374,-36.4266 0.6173,-0.32 1.2173,-0.6267 1.8573,-0.9467 1.44,1.24 0.44,1.5867 -0.7867,1.8533 -25.9933,26.2667 -58.6813,43.44 -95.3093,57.4267 74.8693,15.2533 148.776,-45.12 141.8827,-111.6267"
           style="fill:#ffb80c;fill-opacity:1;fill-rule:nonzero;stroke:none;stroke-width:0.133333" />
        <path
           id="path265"
           d="m 2700.092,1235.6399 c -9.12,-36.36 -10.92,-72.28 -1.04,-108.2266 1.32,16.24 0.6,32.5333 3.2267,48.7066 2.64,16.2667 4.8267,32.6 11.2933,48.7067 5.7867,-4.5867 9.48,-9.4667 13.1467,-14.2533 20.3067,-26.5067 25.4133,-54.48 9,-84.3334 -4.2667,-7.7466 -8.6933,-15.4133 -12.84,-23.2 -5.7467,-10.8133 -9.92,-21.88 -3.24,-35.88 -69.7867,40.44 -69.5067,130.8534 -19.5467,168.48"
           style="fill:#ffb80c;fill-opacity:1;fill-rule:nonzero;stroke:none;stroke-width:0.133333" />
        <path
           id="path266"
           d="m 3982.372,1224.3866 c 5.4,-15.4533 8.4133,-31.0667 10.4933,-46.8267 2.0934,-15.8266 3.1067,-31.7466 3.8534,-47.6933 8.9466,35.1067 7.8266,70.12 -1.9734,107.2533 60.4667,-53.1466 37.4667,-142.4 -18.04,-167.8533 5.7334,11.52 1.8,21.6267 -3.1333,31.4533 -5.0533,10.0934 -11.0267,19.8134 -15.9333,29.96 -15.4934,32.1067 -5.52,70.12 24.7333,93.7067"
           style="fill:#ffb80c;fill-opacity:1;fill-rule:nonzero;stroke:none;stroke-width:0.133333" />
        <path
           id="path267"
           d="m 2672.7054,1441.5333 c 0.027,0 0.04,0 0.067,0 0.8934,-1.4267 1.9467,-2.44 4.0534,-1.1734 -1.0667,1.7867 -2.0267,3.3067 -4.12,1.1734 z m 54.76,-44.2667 c -9.3467,8.9733 -20.7467,11.36 -33.28,11.0533 -10.24,-0.2533 -20.48,-0.2133 -30.72,-0.12 -40.408,0.3734 -69.368,24.4134 -81.2214,60.3867 3.98,-0.7067 7.6187,-1.32 11.2414,-2 26.4586,-5 51.2866,-14.36 76.0866,-23.8133 0.76,-1.0134 1.8934,-1.2267 3.1067,-1.24 1.4133,1.4133 0.093,2.2133 -1.0133,3.08 -28.1734,19.6533 -60.356,31.3066 -95.1307,39.2266 67.744,24.9467 148.1707,-24.2533 150.9307,-86.5733"
           style="fill:#ffb80c;fill-opacity:1;fill-rule:nonzero;stroke:none;stroke-width:0.133333" />
        <path
           id="path268"
           d="m 4028.7187,1444.0933 c 27.4266,9.9866 54.68,20.52 85.8266,24.3066 -14.6533,-31.36 -33.96,-55.2266 -72.44,-59.52 -7.9466,-0.88 -15.88,-0.64 -23.84,-0.7066 -17.7066,-0.16 -36.1066,2.8666 -51.3866,-11.3734 8.8666,73.0667 94.5866,109.72 150.84,86.96 -32.9067,-8 -64.04,-18.36 -90.8134,-37.4533 -2.92,-0.72 -5.36,-2.1733 -7.64,-4.0933 3.7067,-1.2667 6.7867,-0.5467 9.4534,1.88"
           style="fill:#ffb80c;fill-opacity:1;fill-rule:nonzero;stroke:none;stroke-width:0.133333" />
        <path
           id="path269"
           d="m 3888.7453,1144.1733 c 1.6667,1.4133 2.4934,4.56 5.84,3.2933 6.7067,-27.7333 5.36,-55.7333 5.5867,-83.7333 11.32,30.7333 12.6667,62.1066 8.2667,94.0666 23.16,-25.16 30.8266,-54.2933 23.8133,-86.2 -6.96,-31.6266 -25.8667,-55.8 -58.08,-70.56 5.3867,10.7867 3.6933,21.0667 -0.64,31.36 -3.8133,9.0667 -7.5333,18.1734 -11.1733,27.3067 -7.04,17.6667 -7.1334,35.3333 1.2533,52.6133 5.9067,12.1734 14.4133,22.8134 25.1333,31.8534"
           style="fill:#ffb80c;fill-opacity:1;fill-rule:nonzero;stroke:none;stroke-width:0.133333" />
        <path
           id="path270"
           d="m 2785.292,1135.8933 c -1.6266,-25.4534 0.68,-50.4667 9.88,-74.72 0.3067,-1.6667 0.6134,-3.3467 1,-5.4667 2.52,2.4933 1.6,4.5333 0.4134,6.5733 -1.5467,28.6267 -2.6134,57.24 4.84,87.1734 6.12,-6.1867 11.36,-11.08 16.08,-16.3467 19.72,-21.9867 26.4266,-46.36 15.44,-73.7867 -2.6,-6.5066 -5.2,-13.0266 -8.0267,-19.4666 -5.6533,-12.8534 -10.68,-25.72 -2.5733,-40.34669 -71.7467,34.65329 -76.5467,118.15999 -35.3867,157.66669 -0.6,-7.7334 -1.2267,-14.4934 -1.6667,-21.28"
           style="fill:#ffb80c;fill-opacity:1;fill-rule:nonzero;stroke:none;stroke-width:0.133333" />
        <path
           id="path271"
           d="m 2787.7187,1318.5333 c -16.4667,7.08 -21.0267,7.5066 -40.1867,4.3866 -6.72,-1.1066 -13.5333,-1.6933 -20.2666,-2.72 -34.24,-5.2 -59.6534,7.7867 -79.2667,32.4667 -3.1733,3.9867 -7.16,7.8267 -7.72,13.3867 5.84,0.68 11.0933,-0.16 16.36,-0.5067 23.9333,-1.52 46.9733,-7.32 70.1867,-12.2933 1.6666,-1.6 3.6533,-2.0667 6.4533,-1.2667 -0.8,2.2533 -3.36,2 -4.8,3.0267 -29.84,14.7866 -61.92,22.6666 -97.4,24.96 66.0667,33.36 145.64,-7.3467 156.64,-61.44"
           style="fill:#ffb80c;fill-opacity:1;fill-rule:nonzero;stroke:none;stroke-width:0.133333" />
        <path
           id="path272"
           d="m 3998.132,1320.6799 c -16.3067,-3.5866 -32.4667,-0.64 -48.4667,2.0667 -14.5866,2.48 -28.7866,3.6533 -42.5466,-5.04 14.28,58.7333 93.9466,93.76 157.84,62.1867 -38.1467,-2.44 -71.5867,-11.12 -102.36,-27.9467 30.2266,7.72 60.72,13.5467 94.2,14.6533 -14.1334,-22.9866 -31.3067,-39.9066 -58.6667,-45.92"
           style="fill:#ffb80c;fill-opacity:1;fill-rule:nonzero;stroke:none;stroke-width:0.133333" />
        <path
           id="path273"
           d="m 2904.172,1005.7733 c -4.1333,26.1333 -8.6666,52.16 -6.8666,80.4933 10,-7 17.7866,-12.9067 24.72,-19.8267 14.5866,-14.5733 21.7466,-31.3733 19.8533,-51.36 -0.9867,-10.4533 -3.7467,-20.50662 -6.4667,-30.59996 -3.0533,-11.31999 -4.5066,-22.50666 1.6134,-33.41333 0.9066,-0.29333 1.68,-0.66666 1.16,-1.66666 -1.0267,-0.73334 -1.7334,-0.10667 -2.4534,0.4 -37.24,11.08 -66.7066,47.41333 -68.9466,84.25335 -1.2534,20.6133 3.2133,39.68 15.5066,57.2533 1.5467,-29.84 6.72,-58.72 21.88,-85.5333"
           style="fill:#ffb80c;fill-opacity:1;fill-rule:nonzero;stroke:none;stroke-width:0.133333" />
        <path
           id="path274"
           d="m 3798.332,1084.4399 c 0,-6.5866 0.027,-12.7466 0,-18.8933 -0.12,-20.24 -4.84,-39.92 -8.2933,-59.76 -1.68,-1.3733 -1.32,-2.9467 -1.1734,-4.7467 2.2267,0.64 2.5867,1.9867 3.1334,3.2 13.6666,27.6534 20.0933,56.7734 19.8,88.56 40.7466,-55.1333 1.3733,-131.53329 -56.1734,-143.03995 10.3334,10.41333 7.3467,21.54666 4.8667,32.53333 -1.52,6.78666 -3.6933,13.46666 -5.28,20.24002 -7.9333,33.6666 9.4933,67.32 43.12,81.9066"
           style="fill:#ffb80c;fill-opacity:1;fill-rule:nonzero;stroke:none;stroke-width:0.133333" />
        <path
           id="path275"
           d="m 3900.8387,1273.6399 c 28.04,2.8 56.0666,5.56 85.4533,1.3334 -12.16,-13.7467 -25,-24.7067 -41.76,-31.24 -19.7867,-7.7067 -39.32,-4.4 -58.72,1.4933 -15.9067,4.8267 -31.6667,10.8267 -49.36,2.68 28.64,59.6133 110.92,74.28 158.2267,39.0133 -33.5467,1.92 -65.2534,-0.6 -95.68,-11.32 -1.7467,-0.7333 -4.0534,-0.48 -5.1867,-2.4533 2.5067,-1.1067 4.8,-0.8133 7.0267,0.4933"
           style="fill:#ffb80c;fill-opacity:1;fill-rule:nonzero;stroke:none;stroke-width:0.133333" />
        <path
           id="path276"
           d="m 2857.0787,1248.8266 c -15.2667,5.9733 -29.28,2.1067 -43.28,-2.1867 -4.3067,-1.3066 -8.6667,-2.48 -12.9733,-3.7733 -34.5867,-10.32 -67.0134,1.84 -91,32.5333 4.9333,0.4134 9.28,0.8267 13.64,1.1334 23.9466,1.72 47.6933,-0.6267 71.4533,-2.8134 2.1733,-1.5466 4.4667,-1.5866 6.9467,-0.4666 -1.4267,1.72 -3.5467,1.6666 -5.4667,2.08 -30.28,11.3066 -62.0533,13.2 -95.4667,11.7066 50.3734,37.4 134.1734,16 156.1467,-38.2133"
           style="fill:#ffb80c;fill-opacity:1;fill-rule:nonzero;stroke:none;stroke-width:0.133333" />
        <path
           id="path277"
           d="m 3651.7187,940.83995 c -0.88,7.58666 -2.24,15.13333 -3.0934,22.72 -3.3733,30.09333 17.7334,60.45335 48.96,69.94665 -1.1066,-25.36 -7.9866,-49.51999 -15.04,-73.73332 17.3067,24.09333 25.0534,51.09332 29.2134,79.98662 29.72,-50.03996 -5.8934,-119.58662 -65.7734,-129.46662 6.64,11.86667 7.44,15.72 5.7334,30.54667"
           style="fill:#ffb80c;fill-opacity:1;fill-rule:nonzero;stroke:none;stroke-width:0.133333" />
        <path
           id="path278"
           d="m 3015.012,952.59995 c 2.0134,1.93333 1.3734,3.32 -0.64,4.48 -0.6,-1.53334 0.08,-2.93334 0.64,-4.48 z m -16.32,31.14666 c 4.1734,-9.13333 7,-19.10666 15.4667,-26.16 -1.2933,8.46667 -5.0667,16.32 -7.2533,24.57333 -4.4534,16.78667 -9.0267,33.55996 -8.64,51.27996 31.6933,-12.32 49.7066,-38.33329 48.4666,-61.27995 -0.5066,-9.46667 -1.1466,-18.84 -3.04,-28.2 -1.1466,-5.72 -0.7866,-11.73334 -0.7066,-17.61334 0.093,-6.04 4.0133,-11.08 7.9333,-17.12 -75.2667,17.54667 -92.4533,93.93329 -66.9067,130.17329 2.16,-19.4933 6.6267,-38.04 14.68,-55.65329"
           style="fill:#ffb80c;fill-opacity:1;fill-rule:nonzero;stroke:none;stroke-width:0.133333" />
        <path
           id="path279"
           d="m 3858.2387,1201.8933 c 14.6133,-0.9334 29.1333,-2 44.7733,-5.6267 -19.4533,-17.6133 -39.6533,-30.4933 -67.5333,-28.04 -13.0134,1.1467 -24.7467,5.8933 -36.48,10.7333 -12.5067,5.16 -25.1734,9.5467 -39.6267,4.32 29.48,53.2534 112.36,61.5734 152.4267,23.8534 -33.08,4.7866 -65.5467,4.1466 -97.4934,-5.12 14.6534,0.08 29.28,0.8266 43.9334,-0.12"
           style="fill:#ffb80c;fill-opacity:1;fill-rule:nonzero;stroke:none;stroke-width:0.133333" />
        <path
           id="path280"
           d="m 2935.9587,1182.9333 c -11.7333,4.8666 -22.5467,2.48 -33.2133,-1.56 -6.9867,-2.6534 -13.8667,-5.5867 -20.9467,-8 -34.1733,-11.6667 -67.0533,-3.12 -88.32,23.2266 14.1733,3.2 28.3467,4.0667 42.5467,5.3334 14.2533,1.2533 28.4666,-0.067 42.7066,0.3733 -30.7466,9.1467 -62.1066,9.08 -94.7466,5.1467 44.04,39.3466 126.36,25.44 151.9733,-24.52"
           style="fill:#ffb80c;fill-opacity:1;fill-rule:nonzero;stroke:none;stroke-width:0.133333" />
        <path
           id="path281"
           d="m 2872.5587,1138.9199 c 33.2,41.5867 113.8133,41.48 146.6,-4.24 -9.96,4.2 -18.4133,1.28 -26.5067,-2.76 -9.6266,-4.8133 -18.76,-10.5066 -28.6,-14.9066 -15.2133,-6.8134 -31.1333,-9.4134 -47.8666,-4.44 -12.0134,3.56 -22.8,8.9733 -33.64,17.28 26.2,9.5333 52.32,13 79.72,15.9466 -6.0134,2.9867 -11.3867,2.4 -16.4667,2.6534 -24.76,1.24 -48.76,-3.1067 -73.24,-9.5334"
           style="fill:#ffb80c;fill-opacity:1;fill-rule:nonzero;stroke:none;stroke-width:0.133333" />
        <path
           id="path282"
           d="m 3675.092,1135.4133 c 23.16,25.2666 50.7733,36 84.2267,34.24 21.88,-1.1467 54.5733,-14.2534 61.8933,-30.4134 -28.9867,7.76 -58.0133,12.2267 -87.88,6.96 26.7867,-3.0933 53.3333,-6.72 79.28,-16.32 -22.52,-17.0933 -44.9333,-23.0533 -67.2267,-18.0933 -13.88,3.08 -25.2933,10.8133 -37.28,17.3867 -9.5466,5.2266 -19.3066,9.2133 -33.0133,6.24"
           style="fill:#ffb80c;fill-opacity:1;fill-rule:nonzero;stroke:none;stroke-width:0.133333" />
        <path
           id="path283"
           d="m 3587.0253,1093.0666 c 21.52,19.8 45.56,28.3867 73.2134,26 30.6533,-2.6667 57.4533,-17.9733 64.76,-34.68 -35.2934,11.84 -58.56,15.8933 -83.0534,13.88 25.2267,-4.7867 50.0267,-11.0933 73.9734,-22.04 -32.96,-20.12 -60.24,-19.32 -89.6134,1.8533 -2.08,1.4934 -4.28,2.8534 -6.32,4.4 -8.8666,6.7467 -18.4266,11.9067 -32.96,10.5867"
           style="fill:#ffb80c;fill-opacity:1;fill-rule:nonzero;stroke:none;stroke-width:0.133333" />
        <path
           id="path284"
           d="m 2980.6254,1076.5333 c 23.28,11.16 48.2933,16.7066 73.4266,22 -28.8533,1.7333 -56.16,-4.12 -85.0666,-14.92 33.7733,47.88 111.2533,43.48 136.88,9.4533 -9.2934,1.0533 -17.2667,-1.68 -24.4934,-6.6133 -4.8533,-3.3067 -9.6666,-6.68 -14.4533,-10.0534 -27.4933,-19.4 -62.2,-19.52 -86.2933,0.1334"
           style="fill:#ffb80c;fill-opacity:1;fill-rule:nonzero;stroke:none;stroke-width:0.133333" />
        <path
           id="path285"
           d="m 2963.332,1058.8533 c -3.5866,1.2666 -7.6666,2.52 -11.0533,5.2 3.8933,-1.8267 7.6533,-3.5867 11.0533,-5.2"
           style="fill:#ffb80c;fill-opacity:1;fill-rule:nonzero;stroke:none;stroke-width:0.133333" />
        <path
           id="path286"
           d="m 2963.332,1058.8533 c 2.3467,-0.8134 4.48,-1.64 6.0667,-2.8534 -1.7733,0.84 -3.8667,1.8267 -6.0667,2.8534"
           style="fill:#ffb80c;fill-opacity:1;fill-rule:nonzero;stroke:none;stroke-width:0.133333" />
        <path
           id="path287"
           d="m 2943.4787,1067.6933 -0.2,-0.1867 c -0.04,0.1333 -0.08,0.24 -0.12,0.3733 0.1067,-0.067 0.2133,-0.1333 0.32,-0.1866"
           style="fill:#ffb80c;fill-opacity:1;fill-rule:nonzero;stroke:none;stroke-width:0.133333" />
        <path
           id="path288"
           d="m 2930.3854,1075.2666 c 1.72,-1 3.2533,-1.88 4.7066,-2.72 -1.6666,0.4933 -3.32,1.24 -4.7066,2.72"
           style="fill:#ffb80c;fill-opacity:1;fill-rule:nonzero;stroke:none;stroke-width:0.133333" />
        <path
           id="path289"
           d="m 2943.1587,1067.8799 c -2.5067,1.44 -5.0667,2.92 -8.0667,4.6667 3.4934,-1.0533 7,-1.08 8.0667,-4.6667"
           style="fill:#ffb80c;fill-opacity:1;fill-rule:nonzero;stroke:none;stroke-width:0.133333" />
        <path
           id="path290"
           d="m 3783.6387,1086.4533 c 0.04,0.093 0.093,0.1733 0.12,0.2666 0.093,-0.04 0.16,-0.04 0.2533,-0.067 -0.013,-0.04 -0.04,-0.067 -0.053,-0.093 -0.1067,-0.027 -0.2,-0.08 -0.32,-0.1066"
           style="fill:#ffb80c;fill-opacity:1;fill-rule:nonzero;stroke:none;stroke-width:0.133333" />
        <path
           id="path291"
           d="m 3772.612,1080.6133 c 3.3867,2.4266 6.76,4.84 11.0267,5.84 -1.88,-4.8267 -5.96,-6.1067 -11.0267,-5.84"
           style="fill:#ffb80c;fill-opacity:1;fill-rule:nonzero;stroke:none;stroke-width:0.133333" />
        <path
           id="path292"
           d="m 3772.1853,1080.3866 c -0.027,0.093 -0.013,0.1467 -0.04,0.24 0.16,-0.013 0.3067,0 0.4667,-0.013 -0.067,-0.053 -0.1467,-0.1067 -0.2267,-0.16 -0.067,-0.013 -0.1333,-0.04 -0.2,-0.067"
           style="fill:#ffb80c;fill-opacity:1;fill-rule:nonzero;stroke:none;stroke-width:0.133333" />
        <path
           id="path293"
           d="m 3767.532,1076.3333 c 1.5067,2.76 2.9467,3.6 4.6533,4.0533 0.7467,-3.1733 -2.1733,-2.4133 -4.6533,-4.0533"
           style="fill:#ffb80c;fill-opacity:1;fill-rule:nonzero;stroke:none;stroke-width:0.133333" />
        <path
           id="path294"
           d="m 2943.4787,1067.6933 c 0.1333,-0.067 0.2533,-0.12 0.3867,-0.1867 -0.2,0 -0.4,0 -0.5867,0 l 0.2,0.1867"
           style="fill:#ffb80c;fill-opacity:1;fill-rule:nonzero;stroke:none;stroke-width:0.133333" />
        <path
           id="path295"
           d="m 2946.5854,1066.1999 c -0.9067,0.44 -1.8134,0.8667 -2.72,1.3067 1,0 1.9866,0 2.9866,0 -0.093,-0.44 -0.1866,-0.8667 -0.2666,-1.3067"
           style="fill:#ffb80c;fill-opacity:1;fill-rule:nonzero;stroke:none;stroke-width:0.133333" />
        <path
           id="path296"
           d="m 3132.0654,2581.7466 c -1.32,-0.5867 -1.68,0.3466 -2.12,1.1466 -1.32,0.6267 -2.7467,1.1067 -3.9334,1.8934 -38.7333,25.6666 -80.8133,45.12 -126.7466,57.3733 -13.36,3.56 -26.7334,7.24 -40.9734,7.4267 52.36,-21.1867 102.8267,-45.0934 148.72,-79.8534 -13.0666,-3.1466 -24.12,-6.3866 -35.44,-8.44 -31.8533,-5.8 -63.4,-6 -93.28,7.7067 -23.8933,10.96 -41.5733,28.7867 -58.0666,47.3067 -14.8667,16.7066 -29.3467,33.3733 -54.6267,42.56 -2.7467,0 -8.2533,0 -13.92,0 0.4267,1.2533 0.4267,2.1466 0.88,2.4533 2.76,1.8267 5.52,3.68 8.4667,5.24 43.2933,22.96 89.7066,29.72 138.1066,19.12 62.0534,-13.56 107.12,-46.8933 132.24,-101.4933 v 0 c 0.7734,-0.68 1.3734,-1.4 0.6934,-2.44"
           style="fill:#ffb80c;fill-opacity:1;fill-rule:nonzero;stroke:none;stroke-width:0.133333" />
        <path
           id="path297"
           d="m 3763.8787,1074.9999 c 0.3333,0.2 0.6666,0.4134 1.0266,0.5734 0.027,0.013 0.24,-0.32 0.3334,-0.44 -0.2134,-0.2267 -0.4,-0.5734 -0.6267,-0.6 -0.2267,-0.027 -0.4933,0.2933 -0.7333,0.4666"
           style="fill:#ffb80c;fill-opacity:1;fill-rule:nonzero;stroke:none;stroke-width:0.133333" />
        <path
           id="path298"
           d="m 2613.5067,1151.2133 c -0.071,-0.067 -0.1387,-0.1067 -0.2133,-0.1867 -0.01,0.12 -0.01,0.2267 -0.017,0.3467 0.053,-0.04 0.1014,-0.093 0.156,-0.1334 0.024,0 0.053,-0.013 0.075,-0.027"
           style="fill:#ffb80c;fill-opacity:1;fill-rule:nonzero;stroke:none;stroke-width:0.133333" />
        <path
           id="path299"
           d="m 2614.7747,1150.7333 c -0.5027,0.1866 -0.8853,0.3333 -1.268,0.48 0.492,0.4266 0.9013,0.3333 1.268,-0.48"
           style="fill:#ffb80c;fill-opacity:1;fill-rule:nonzero;stroke:none;stroke-width:0.133333" />
        <path
           id="path300"
           d="m 2559.1774,1431.2266 -0.2507,-0.3733 c -0.012,0.013 -0.024,0 -0.037,0.013 0.01,0.04 0.025,0.067 0.035,0.1067 l 0.2534,0.2533"
           style="fill:#ffb80c;fill-opacity:1;fill-rule:nonzero;stroke:none;stroke-width:0.133333" />
        <path
           id="path301"
           d="m 4261.9453,2255.4532 c -15.32,8.3734 -31.64,8.4134 -48.2266,4.4134 -14.2534,-3.44 -28.4267,-7.2 -42.5334,-11.12 -45.6533,-12.6934 -86.0533,-4.0667 -121.24,25.16 -10.1733,8.4533 -19.96,17.3866 -28.16,29.2 26.32,2.2133 50.8667,2.68 75.4934,1.4133 24.2666,-1.2533 48.1866,-5.64 72.5866,-6.3867 -16.5066,8.1467 -34.2,12.64 -52.1333,16.44 -17.72,3.7734 -35.64,6.52 -53.8267,7.64 -18.3066,1.1334 -36.6533,1.1867 -54.96,0.2 -0.12,2.7734 1.4134,3.3067 2.6,4.0534 65.4534,40.9333 161.2134,31.4133 216.8934,-21.84 14.68,-14.04 27.9866,-29.1334 34.44,-48.2134 1,-0.6666 1.68,-1.3733 0.4,-2.3733 -0.44,0.4667 -0.8934,0.9467 -1.3334,1.4133"
           style="fill:#ffb80c;fill-opacity:1;fill-rule:nonzero;stroke:none;stroke-width:0.133333" />
        <path
           id="path302"
           d="m 3565.1053,1040.3466 c -9.8266,2.36 -19.6266,3.9333 -29.48,5.2533 -35.4,4.7734 -71.0533,7.0134 -106.8,8.3867 -34.1866,1.32 -68.3866,1.9333 -102.6,1.5867 -24.6133,-0.2667 -49.1999,-1.0934 -73.7333,-2.6 -20.4666,-1.2667 -40.92,-2.5867 -61.2533,-5.04 -3.1733,-0.3867 -6.5733,0.2 -9.3067,-2.08 -1.24,1.6 -3.12,1.36 -4.68,1.08 -10.04,-1.84 -20.28,-2.4667 -30.3466,-4.04 -5.6667,-0.8934 -11.36,-1.6934 -17.1334,-2.5467 -3.9733,-9.12 -7.8133,-18.0667 -11.76,-26.9733 -16.9333,-38.24002 -33.3066,-76.66669 -49.2133,-115.22669 -11.76,-28.49333 -23.36,-57.04 -33.1733,-86.10666 -2.1734,-6.44 -4.2134,-12.93333 -5.5067,-19.56 -0.4267,-2.21333 -0.9467,-4.46667 0.2,-6.73333 2.68,-0.64 4.3067,0.89333 5.9333,2.09333 6.52,4.85333 11.9867,10.56 17.5334,16.2 18.8933,19.14667 37.3466,38.64 57.84,56.54666 16.16,14.10667 33.08,27.42667 52.6533,37.96 12.24,6.58667 25.1333,11.73334 39.5467,13.78667 14.8,2.10667 27.8266,-1.21333 39.64,-8.86667 12.2,-7.89333 21.56,-18.01333 29.8933,-28.88 14.6,-19.05333 25.6266,-39.71999 35.8933,-60.70666 9.6933,-19.8 17.9867,-40.08 27.5333,-59.93333 1.8267,-3.78667 3.72,-7.54667 6.2,-11.05334 1.0934,-1.53333 2.1067,-3.17333 4.44,-3.89333 2.6534,0.54667 3.7734,2.57333 4.9734,4.4 4.5866,6.94667 7.8133,14.41333 11.1733,21.82667 9.7467,21.49333 19.0133,43.14666 30.0533,64.18666 8.28,15.77333 17.2267,31.25333 28.3334,45.69333 7.0133,9.09334 15,17.54667 24.5066,24.90667 17.0267,13.18667 36.2267,15.98667 57.5734,9.68 15.7466,-4.65333 29.6533,-12.09333 42.76,-20.78667 22.2533,-14.74666 41.6533,-32.09333 60.0933,-50.26666 13.8,-13.61333 27.28,-27.46667 40.9333,-41.2 3.2667,-3.28 6.6934,-6.45333 10.4667,-9.29333 1.68,-1.26667 3.36,-2.58667 5.9467,-2.58667 1.8666,1.88 1.12,4.10667 0.7466,6.13333 -0.64,3.48 -1.52,6.94667 -2.5333,10.36 -6.7467,22.6 -15.5067,44.66667 -24.3333,66.69333 -22.5867,56.44 -46.8,112.36 -71.4534,168.14669 -0.5066,1.16 -1.04,2.32 -1.56,3.4533"
           style="fill:#ffb80c;fill-opacity:1;fill-rule:nonzero;stroke:none;stroke-width:0.133333" />
        <path
           id="path303"
           d="m 3564.892,1055.2666 c 0,9.5333 0,18.9467 0,28.56 -6.3733,1.5467 -12.84,2.4533 -19.28,3.4 -26.32,3.88 -52.8267,6.4267 -79.4267,8.24 -45.9333,3.1467 -91.9333,4.0533 -138,3.6267 -28.0133,-0.2667 -56.0133,-1.2534 -83.9599,-2.9867 -26.6134,-1.64 -53.1734,-3.8667 -79.6,-7.2 -10.2667,-1.2933 -20.52,-2.6667 -30.7334,-4.2933 -1.2533,-0.2 -2.5066,-0.5067 -3.8666,-0.7734 0,-9.56 0,-18.9866 0,-28.68 5.9066,0.9734 11.6533,1.9067 17.3866,2.88 19.5067,3.2934 39.2134,5.1467 58.96,6.84 55.7067,4.7734 111.5733,5.9067 167.4933,5.1734 28.4134,-0.36 56.8,-1.4667 85.12,-3.3734 32.5067,-2.2 64.8934,-5.2933 97.0267,-10.1733 2.8933,-0.4267 5.6667,-1.6267 8.88,-1.24"
           style="fill:#ffb80c;fill-opacity:1;fill-rule:nonzero;stroke:none;stroke-width:0.133333" />
        <path
           id="path304"
           d="m 3266.7587,862.05328 c -8.68,10.81333 -18.2533,20.85333 -31.0267,28.28 -11.4533,6.65333 -23.9066,8.90667 -37.5333,6.85333 -15.5467,-2.34666 -29.2,-8.37333 -42.52,-15.76 4.64,-8.52 8,-17.22666 10.6267,-26.14666 4.4,-14.92 7.0933,-30.09333 9.5466,-45.32 1.4267,-8.90667 2.48,-17.86667 4.6934,-26.66667 0.5333,-2.08 0.7866,-4.30666 2.9466,-5.93333 2.3334,0.0933 3.5867,1.68 4.8934,3.01333 5.0533,5.10667 9.32,10.72 13.7333,16.25334 11.2667,14.14666 22.48,28.34666 35.44,41.41333 8.4933,8.57333 17.4933,16.69333 28.3067,23.13333 0.3066,0.18667 0.5066,0.50667 0.8933,0.88"
           style="fill:#ffb80c;fill-opacity:1;fill-rule:nonzero;stroke:none;stroke-width:0.133333" />
        <path
           id="path305"
           d="m 3430.0653,863.97328 c 23.0534,-14.04 39.2,-33.44 55.1734,-52.96 7.7466,-9.48 14.8,-19.38666 23.0666,-28.53333 1.6534,-1.84 3.16,-3.93333 6.2,-4.57333 2.3734,1.54666 2.5734,3.93333 3.12,6.06666 2.1867,8.57334 3.2934,17.30667 4.7334,25.98667 3.2933,19.70667 6.8133,39.38666 14.2533,58.33333 1.4267,3.65333 3.1333,7.21333 4.8267,11.06667 -13.9067,8.06666 -28.4667,14.77333 -45.2667,17.25333 -13.3333,1.97333 -25.5733,-0.2 -36.84,-6.61333 -6.2933,-3.6 -11.8267,-7.96 -16.9867,-12.69334 -4.52,-4.14666 -8.3866,-8.74666 -12.28,-13.33333"
           style="fill:#ffb80c;fill-opacity:1;fill-rule:nonzero;stroke:none;stroke-width:0.133333" />
        <path
           id="path306"
           d="m 3085.332,1869.8266 h -296.7466 l 146.2266,-421.48 z m 253.7333,-21.5067 -2.1466,-612.8533 c -33.9867,25.0933 -44.96,72.92 -25.8,150.5333 -76.3733,-57.6933 -162.32,-51.4533 -253.7467,-8.6133 -73.2933,19.0267 -131.8266,20.4533 -172.0266,0 l 34.4133,47.3067 -159.1333,442.9733 c 0,0 -21.4934,0 -21.5067,0 -6.4133,0 15.0267,50.8133 17.8,55.5333 15.3867,26.2 44.8533,39.36 71.9067,48.3734 70.3733,23.4533 160.6266,26.56 228.1066,-7.0267 19.08,-9.4933 36.2134,-22.5733 49.0667,-39.7067 3.4533,-4.6133 27.5067,-57.1733 24.4933,-57.1733 -0.027,0 -17.2,0 -17.2,0 l -159.1333,-438.6667 c 148.3733,19.3467 298.8933,-19.36 374.16,73.1067 h -73.1067 v 51.6133 h -25.8133 v 55.9067 h 30.1067 c 1.0266,126.5333 -29.12,222.52 -94.6134,283.8533 63.64,83.5867 110.4667,212.88 137.6267,395.6533 h 21.5066 v -369.8533 c -27.9599,-10.7466 -36.5599,-66.6666 15.04,-70.96"
           style="fill:#ffb80c;fill-opacity:1;fill-rule:nonzero;stroke:none;stroke-width:0.133333" />
        <path
           id="path307"
           d="m 3744.292,1448.3466 146.2267,421.48 H 3593.772 Z m -389.2133,470.9333 v 369.8533 h 21.5066 c 27.16,-182.7733 73.9867,-312.0666 137.6267,-395.6533 -65.5067,-61.3333 -95.64,-157.32 -94.6133,-283.8533 h 30.0933 v -55.9067 h -25.8 v -51.6133 h -73.1067 c 75.2534,-92.4667 225.7867,-53.76 374.16,-73.1067 l -159.1333,438.6667 c 0,0 -17.1733,0 -17.2,0 -3.0267,0 21.0267,52.56 24.4933,57.1733 12.8534,17.1334 29.9734,30.2134 49.0667,39.7067 67.48,33.5867 157.72,30.48 228.0933,7.0267 27.0667,-9.0134 56.52,-22.1734 71.9067,-48.3734 2.7867,-4.72 24.2267,-55.5333 17.8,-55.5333 h -21.5067 l -159.12,-442.9733 34.4,-47.3067 c -40.1866,20.4533 -98.72,19.0267 -172.0266,0 -91.4134,-42.84 -177.36,-49.08 -253.7334,8.6133 19.16,-77.6133 8.1734,-125.44 -25.8,-150.5333 l -2.16,612.8533 c 51.6134,4.2934 43.0134,60.2134 15.0534,70.96"
           style="fill:#ffb80c;fill-opacity:1;fill-rule:nonzero;stroke:none;stroke-width:0.133333" />
        <path
           id="path308"
           d="m 3648.4253,2105.6666 c -33.6,39.7333 -66.8266,79.7866 -100.92,119.0933 -36.3466,41.92 -72.7333,83.92 -119.2,115.4933 -46.2933,31.44 -93.6133,33.16 -142.4266,5.96 -31.6,-17.6133 -59.2933,-40.24 -85.5867,-64.7466 -55.48,-51.6667 -105.2666,-108.6667 -155.32,-165.4267 -3.84,-4.36 -6.4133,-12.3466 -14.8533,-9.4266 4.52,7.6266 8.8,14.7999 13.0267,21.9999 39.1733,66.6667 78.4133,133.3067 124.4,195.6134 28.04,38 58.16,74.1466 96.8133,102.0666 57.2533,41.3467 113.5866,41.24 170.92,0.16 22.4933,-16.1066 42.04,-35.3466 59.5733,-56.5866 65.48,-79.3067 112.7067,-169.4667 155.4,-262.2934 0,-0.013 0,-0.013 -0.013,-0.013 0.56,-1.6 1.12,-3.1866 1.68,-4.7733 -2.4534,-0.8133 -3.04,0.9467 -3.4934,2.88"
           style="fill:#ffb80c;fill-opacity:1;fill-rule:nonzero;stroke:none;stroke-width:0.133333" />
      </g>
    </g>
  </g>
</svg>
